<svg width="20" height="20" viewBox="0 0 20 20" fill="none" xmlns="http://www.w3.org/2000/svg">
<circle cx="10" cy="10" r="10" fill="#135A59" fill-opacity="0.1"/>
<path d="M10 4C6.6916 4 4 6.69164 4 10C4 13.3084 6.6916 16 10 16C13.3084 16 16 13.3084 16 10C16 6.69164 13.3084 4 10 4ZM10 14.9091C7.29309 14.9091 5.09091 12.7069 5.09091 10C5.09091 7.29316 7.29309 5.09091 10 5.09091C12.7069 5.09091 14.9091 7.29316 14.9091 10C14.9091 12.7069 12.7069 14.9091 10 14.9091Z" fill="#135A59"/>
<path d="M9.99992 6.54541C9.59898 6.54541 9.2728 6.87181 9.2728 7.27301C9.2728 7.67385 9.59898 7.99996 9.99992 7.99996C10.4009 7.99996 10.7271 7.67385 10.7271 7.27301C10.7271 6.87181 10.4009 6.54541 9.99992 6.54541Z" fill="#135A59"/>
<path d="M10 9.09082C9.69878 9.09082 9.45456 9.33504 9.45456 9.63627V12.909C9.45456 13.2102 9.69878 13.4545 10 13.4545C10.3013 13.4545 10.5455 13.2102 10.5455 12.909V9.63627C10.5455 9.33504 10.3013 9.09082 10 9.09082Z" fill="#135A59"/>
</svg>
