<svg width="41" height="10" viewBox="0 0 41 10" fill="none" xmlns="http://www.w3.org/2000/svg">
<path d="M18.9223 0.668945L16.3076 6.46372L13.7054 0.668945H10.3706V8.99173L6.65464 0.668945H3.84078L0.0456543 9.30727H2.29154L3.12184 7.3794H7.36862L8.21253 9.30727H12.5001V2.89132L15.3449 9.30727H17.279L20.1881 3.00269V9.30727H22.319V0.668945H18.9223ZM3.92492 5.51339L5.1945 2.49412L6.51357 5.51339H3.92492Z" fill="#1976D2"/>
<path d="M36.3111 4.89221L40.1681 0.691218H37.4247L34.9573 3.36896L32.5704 0.668945H24.0818V9.30851H32.292L34.8806 6.44887L37.4049 9.33078H40.1396L36.3111 4.89221ZM31.1696 7.49447H26.2064V5.78562H30.9556V4.14853H26.2064V2.53L31.4456 2.54485L33.5405 4.89221L31.1696 7.49447Z" fill="#1976D2"/>
</svg>
