<svg width="50" height="51" viewBox="0 0 50 51" fill="none" xmlns="http://www.w3.org/2000/svg">
<circle cx="25" cy="25.5" r="25" fill="#FAFAFA"/>
<g clip-path="url(#clip0)">
<path d="M32.6172 23.9766C33.2644 23.9766 33.7891 23.4519 33.7891 22.8047C33.7891 22.1575 33.2644 21.6328 32.6172 21.6328C31.97 21.6328 31.4453 22.1575 31.4453 22.8047C31.4453 23.4519 31.97 23.9766 32.6172 23.9766Z" fill="#41A393"/>
<path d="M35.3125 12.8438H33.7891V11.6719C33.7891 11.0246 33.2644 10.5 32.6172 10.5C31.97 10.5 31.4453 11.0246 31.4453 11.6719V12.8438H26.1133V11.6719C26.1133 11.0246 25.5886 10.5 24.9414 10.5C24.2942 10.5 23.7695 11.0246 23.7695 11.6719V12.8438H18.4961V11.6719C18.4961 11.0246 17.9714 10.5 17.3242 10.5C16.677 10.5 16.1523 11.0246 16.1523 11.6719V12.8438H14.6875C12.1028 12.8438 10 14.9466 10 17.5312V35.8125C10 38.3972 12.1028 40.5 14.6875 40.5H23.6523C24.2996 40.5 24.8242 39.9754 24.8242 39.3281C24.8242 38.6809 24.2996 38.1562 23.6523 38.1562H14.6875C13.3952 38.1562 12.3438 37.1048 12.3438 35.8125V17.5312C12.3438 16.2389 13.3952 15.1875 14.6875 15.1875H16.1523V16.3594C16.1523 17.0066 16.677 17.5312 17.3242 17.5312C17.9714 17.5312 18.4961 17.0066 18.4961 16.3594V15.1875H23.7695V16.3594C23.7695 17.0066 24.2942 17.5312 24.9414 17.5312C25.5886 17.5312 26.1133 17.0066 26.1133 16.3594V15.1875H31.4453V16.3594C31.4453 17.0066 31.97 17.5312 32.6172 17.5312C33.2644 17.5312 33.7891 17.0066 33.7891 16.3594V15.1875H35.3125C36.6048 15.1875 37.6562 16.2389 37.6562 17.5312V24.2109C37.6562 24.8582 38.1809 25.3828 38.8281 25.3828C39.4754 25.3828 40 24.8582 40 24.2109V17.5312C40 14.9466 37.8972 12.8438 35.3125 12.8438Z" fill="#41A393"/>
<path d="M32.9102 26.3203C29.0008 26.3203 25.8203 29.5008 25.8203 33.4102C25.8203 37.3195 29.0008 40.5 32.9102 40.5C36.8195 40.5 40 37.3195 40 33.4102C40 29.5008 36.8195 26.3203 32.9102 26.3203ZM32.9102 38.1562C30.2932 38.1562 28.1641 36.0272 28.1641 33.4102C28.1641 30.7931 30.2932 28.6641 32.9102 28.6641C35.5271 28.6641 37.6562 30.7931 37.6562 33.4102C37.6562 36.0272 35.5271 38.1562 32.9102 38.1562Z" fill="#41A393"/>
<path d="M34.6094 32.2383H34.082V31.0078C34.082 30.3606 33.5574 29.8359 32.9102 29.8359C32.2629 29.8359 31.7383 30.3606 31.7383 31.0078V33.4102C31.7383 34.0574 32.2629 34.582 32.9102 34.582H34.6094C35.2566 34.582 35.7812 34.0574 35.7812 33.4102C35.7812 32.7629 35.2566 32.2383 34.6094 32.2383Z" fill="#41A393"/>
<path d="M27.5195 23.9766C28.1667 23.9766 28.6914 23.4519 28.6914 22.8047C28.6914 22.1575 28.1667 21.6328 27.5195 21.6328C26.8723 21.6328 26.3477 22.1575 26.3477 22.8047C26.3477 23.4519 26.8723 23.9766 27.5195 23.9766Z" fill="#41A393"/>
<path d="M22.4219 29.0742C23.0691 29.0742 23.5938 28.5496 23.5938 27.9023C23.5938 27.2551 23.0691 26.7305 22.4219 26.7305C21.7747 26.7305 21.25 27.2551 21.25 27.9023C21.25 28.5496 21.7747 29.0742 22.4219 29.0742Z" fill="#41A393"/>
<path d="M17.3242 23.9766C17.9714 23.9766 18.4961 23.4519 18.4961 22.8047C18.4961 22.1575 17.9714 21.6328 17.3242 21.6328C16.677 21.6328 16.1523 22.1575 16.1523 22.8047C16.1523 23.4519 16.677 23.9766 17.3242 23.9766Z" fill="#41A393"/>
<path d="M17.3242 29.0742C17.9714 29.0742 18.4961 28.5496 18.4961 27.9023C18.4961 27.2551 17.9714 26.7305 17.3242 26.7305C16.677 26.7305 16.1523 27.2551 16.1523 27.9023C16.1523 28.5496 16.677 29.0742 17.3242 29.0742Z" fill="#41A393"/>
<path d="M17.3242 34.1719C17.9714 34.1719 18.4961 33.6472 18.4961 33C18.4961 32.3528 17.9714 31.8281 17.3242 31.8281C16.677 31.8281 16.1523 32.3528 16.1523 33C16.1523 33.6472 16.677 34.1719 17.3242 34.1719Z" fill="#41A393"/>
<path d="M22.4219 34.1719C23.0691 34.1719 23.5938 33.6472 23.5938 33C23.5938 32.3528 23.0691 31.8281 22.4219 31.8281C21.7747 31.8281 21.25 32.3528 21.25 33C21.25 33.6472 21.7747 34.1719 22.4219 34.1719Z" fill="#41A393"/>
<path d="M22.4219 23.9766C23.0691 23.9766 23.5938 23.4519 23.5938 22.8047C23.5938 22.1575 23.0691 21.6328 22.4219 21.6328C21.7747 21.6328 21.25 22.1575 21.25 22.8047C21.25 23.4519 21.7747 23.9766 22.4219 23.9766Z" fill="#41A393"/>
</g>
<defs>
<clipPath id="clip0">
<rect width="30" height="30" fill="white" transform="translate(10 10.5)"/>
</clipPath>
</defs>
</svg>
