<svg width="20" height="20" viewBox="0 0 20 20" fill="none" xmlns="http://www.w3.org/2000/svg">
<circle cx="10" cy="10" r="10" fill="#135A59" fill-opacity="0.1"/>
<path d="M14.75 6H5.24999C4.561 6 4 6.561 4 7.25001V12.75C4 13.439 4.561 14 5.24999 14H14.75C15.439 14 16 13.439 16 12.75V7.25001C16 6.561 15.439 6 14.75 6ZM15.5 12.75C15.5 13.1635 15.1635 13.5 14.75 13.5H5.24999C4.83648 13.5 4.49999 13.1635 4.49999 12.75V7.25001C4.49999 6.83651 4.83648 6.50001 5.24999 6.50001H14.75C15.1635 6.50001 15.5 6.83651 15.5 7.25001V12.75H15.5Z" fill="#135A59"/>
<path d="M15.75 7.5H4.25001C4.11201 7.5 4 7.61201 4 7.75001V9.25C4 9.388 4.11201 9.50001 4.25001 9.50001H15.75C15.888 9.50001 16 9.388 16 9.25V7.75001C16 7.61201 15.888 7.5 15.75 7.5ZM15.5 9H4.49999V7.99999H15.5V9H15.5Z" fill="#135A59"/>
<path d="M8.75 11H5.75001C5.61201 11 5.5 11.112 5.5 11.25C5.5 11.388 5.61201 11.5 5.75001 11.5H8.75C8.888 11.5 9.00001 11.388 9.00001 11.25C9.00001 11.112 8.888 11 8.75 11Z" fill="#135A59"/>
<path d="M8.75 12H5.75001C5.61201 12 5.5 12.112 5.5 12.25C5.5 12.388 5.61201 12.5 5.75001 12.5H8.75C8.888 12.5 9.00001 12.388 9.00001 12.25C8.99999 12.112 8.888 12 8.75 12Z" fill="#135A59"/>
<path d="M13.75 10.5H13.25C12.8365 10.5 12.5 10.8365 12.5 11.25V11.75C12.5 12.1635 12.8365 12.5 13.25 12.5H13.75C14.1635 12.5 14.5 12.1635 14.5 11.75V11.25C14.5 10.8365 14.1635 10.5 13.75 10.5ZM14 11.75C14 11.888 13.888 12 13.75 12H13.25C13.112 12 13 11.888 13 11.75V11.25C13 11.112 13.112 11 13.25 11H13.75C13.888 11 14 11.112 14 11.25V11.75Z" fill="#135A59"/>
</svg>
