<svg width="20" height="20" viewBox="0 0 20 20" fill="none" xmlns="http://www.w3.org/2000/svg">
<circle cx="10" cy="10" r="10" fill="#135A59" fill-opacity="0.1"/>
<g clip-path="url(#clip0)">
<path d="M14.125 4H5.875C4.83946 4 4 4.83946 4 5.875V11.875C4 12.9105 4.83946 13.75 5.875 13.75H13.2213L15.3588 15.8912C15.4295 15.9614 15.5253 16.0006 15.625 16C15.8321 16 16 15.8321 16 15.625V5.875C16 4.83946 15.1605 4 14.125 4ZM15.25 14.7213L13.6412 13.1088C13.5705 13.0386 13.4747 12.9994 13.375 13H5.875C5.25367 13 4.75 12.4963 4.75 11.875V5.875C4.75 5.25367 5.25367 4.75 5.875 4.75H14.125C14.7463 4.75 15.25 5.25367 15.25 5.875V14.7213Z" fill="#135A59"/>
<path d="M10 9.625C10.4142 9.625 10.75 9.28921 10.75 8.875C10.75 8.46079 10.4142 8.125 10 8.125C9.58579 8.125 9.25 8.46079 9.25 8.875C9.25 9.28921 9.58579 9.625 10 9.625Z" fill="#135A59"/>
<path d="M12.625 9.625C13.0392 9.625 13.375 9.28921 13.375 8.875C13.375 8.46079 13.0392 8.125 12.625 8.125C12.2108 8.125 11.875 8.46079 11.875 8.875C11.875 9.28921 12.2108 9.625 12.625 9.625Z" fill="#135A59"/>
<path d="M7.375 9.625C7.78921 9.625 8.125 9.28921 8.125 8.875C8.125 8.46079 7.78921 8.125 7.375 8.125C6.96079 8.125 6.625 8.46079 6.625 8.875C6.625 9.28921 6.96079 9.625 7.375 9.625Z" fill="#135A59"/>
</g>
<defs>
<clipPath id="clip0">
<rect width="12" height="12" fill="white" transform="translate(4 4)"/>
</clipPath>
</defs>
</svg>
