<svg width="50" height="51" viewBox="0 0 50 51" fill="none" xmlns="http://www.w3.org/2000/svg">
<circle cx="25" cy="25.5" r="25" fill="#FAFAFA"/>
<path d="M17.0153 31.9221C16.7403 31.9221 16.5173 32.145 16.5173 32.4202C16.5173 32.7326 16.2631 32.9867 15.9506 32.9867C15.6382 32.9867 15.384 32.7326 15.384 32.4202C15.384 32.2186 15.4926 32.0304 15.6675 31.9292C15.9055 31.7914 15.9867 31.4867 15.8489 31.2486C15.7112 31.0106 15.4064 30.9292 15.1683 31.0672C14.687 31.3458 14.3879 31.8643 14.3879 32.4202C14.3879 33.2819 15.0889 33.9829 15.9506 33.9829C16.8123 33.9829 17.5134 33.2818 17.5134 32.4202C17.5134 32.145 17.2904 31.9221 17.0153 31.9221Z" fill="#41A393"/>
<path d="M40.9697 28.7281H40.9354V25.4376C40.9354 24.3049 40.2135 23.3032 39.139 22.9451L37.6131 22.4365L34.9221 16.1575C34.5915 15.3861 33.8357 14.8877 32.9965 14.8877H10.6273C9.76561 14.8877 9.06463 15.5887 9.06463 16.4504V28.7281H9.03036C8.46219 28.7281 8 29.1903 8 29.7585V30.8231C8 31.3913 8.46219 31.8535 9.03036 31.8535H12.3021C12.2735 32.0383 12.2585 32.2275 12.2585 32.4201C12.2585 34.4559 13.9147 36.1121 15.9505 36.1121C17.9863 36.1121 19.6425 34.4559 19.6425 32.4201C19.6425 32.2275 19.6276 32.0383 19.5989 31.8535H20.2091C20.4842 31.8535 20.7072 31.6306 20.7072 31.3555C20.7072 31.0804 20.4842 30.8574 20.2091 30.8574H19.2943C18.7047 29.6008 17.4278 28.7282 15.9504 28.7282C14.473 28.7282 13.1962 29.6008 12.6065 30.8574H11.1236C11.124 30.8459 11.1253 30.8347 11.1253 30.8231V29.7585C11.1253 29.1903 10.6632 28.7281 10.095 28.7281H10.0607V27.5949L32.9845 27.5948C33.2595 27.5948 33.4825 27.3719 33.4825 27.0968C33.4825 26.8217 33.2595 26.5987 32.9845 26.5987L10.0607 26.5988V16.4504C10.0607 16.138 10.3149 15.8839 10.6273 15.8839H32.9965C33.4367 15.8839 33.8331 16.1453 34.0065 16.5498L34.2067 17.017H32.8328C32.6654 17.017 32.5091 17.1012 32.417 17.2409C32.3249 17.3806 32.3091 17.5574 32.3751 17.7112L34.5181 22.7118C34.6807 23.0912 35.0524 23.3363 35.4652 23.3363H37.1626L38.824 23.8901C39.1516 23.9994 39.426 24.2052 39.6209 24.4695H38.3081C38.0331 24.4695 37.8101 24.6925 37.8101 24.9676V26.0323C37.8101 26.894 38.5111 27.595 39.3728 27.595H39.9393V28.7281H39.9051C39.3369 28.7281 38.8747 29.1903 38.8747 29.7585V30.8231C38.8747 30.8347 38.876 30.8459 38.8764 30.8574H38.4581C37.8685 29.6008 36.5916 28.7282 35.1142 28.7282C33.6368 28.7282 32.3599 29.6008 31.7703 30.8574H22.3384C22.0633 30.8574 21.8404 31.0804 21.8404 31.3555C21.8404 31.6306 22.0633 31.8535 22.3384 31.8535H31.4657C31.4371 32.0383 31.4221 32.2275 31.4221 32.4201C31.4221 34.4559 33.0784 36.1121 35.1141 36.1121C37.1499 36.1121 38.8061 34.4559 38.8061 32.4201C38.8061 32.2275 38.7912 32.0383 38.7626 31.8535H40.9696C41.5378 31.8535 42 31.3913 42 30.8231V29.7585C42.0001 29.1903 41.5379 28.7281 40.9697 28.7281ZM15.9506 29.7242C17.4371 29.7242 18.6465 30.9336 18.6465 32.4201C18.6465 33.9066 17.4371 35.116 15.9506 35.116C14.4641 35.116 13.2547 33.9066 13.2547 32.4201C13.2547 30.9336 14.464 29.7242 15.9506 29.7242ZM10.095 29.7242C10.1139 29.7242 10.1293 29.7396 10.1293 29.7585V30.8231C10.1293 30.842 10.1139 30.8574 10.095 30.8574H9.56267H9.03036C9.01144 30.8574 8.9961 30.8421 8.9961 30.8231V29.7585C8.9961 29.7396 9.01144 29.7242 9.03036 29.7242H10.095ZM35.4652 22.3402C35.4514 22.3402 35.4391 22.3321 35.4337 22.3194L33.5881 18.013H34.5819C34.599 18.013 34.6159 18.0122 34.6326 18.0105L36.4882 22.3402H35.4652ZM39.9393 26.5989H39.3728V26.5989C39.0603 26.5989 38.8062 26.3447 38.8062 26.0323V25.4656H39.9051C39.9166 25.4656 39.928 25.4647 39.9393 25.4639V26.5989ZM35.1142 35.116C33.6277 35.116 32.4183 33.9066 32.4183 32.4201C32.4183 30.9336 33.6277 29.7242 35.1142 29.7242C36.6007 29.7242 37.8101 30.9336 37.8101 32.4201C37.8101 33.9066 36.6007 35.116 35.1142 35.116ZM41.004 30.8231C41.004 30.842 40.9886 30.8574 40.9697 30.8574H39.9051C39.8862 30.8574 39.8708 30.8421 39.8708 30.8231V29.7585C39.8708 29.7396 39.8862 29.7242 39.9051 29.7242H40.9697C40.9886 29.7242 41.004 29.7395 41.004 29.7585V30.8231Z" fill="#41A393"/>
<path d="M33.4427 22.6422L31.2996 17.6416C31.137 17.2622 30.7652 17.0171 30.3526 17.0171H26.0648C25.7897 17.0171 25.5667 17.24 25.5667 17.5151V21.2414C25.5667 22.3966 26.5065 23.3364 27.6617 23.3364H32.9849C33.1523 23.3364 33.3086 23.2522 33.4007 23.1125C33.4928 22.9728 33.5086 22.796 33.4427 22.6422ZM27.6617 22.3404C27.0557 22.3403 26.5628 21.8474 26.5628 21.2414V18.0132H30.3526C30.3663 18.0132 30.3787 18.0214 30.384 18.034L32.2296 22.3404H27.6617Z" fill="#41A393"/>
<path d="M36.1788 26.5989H35.1144C34.8393 26.5989 34.6163 26.8218 34.6163 27.0969C34.6163 27.372 34.8393 27.595 35.1144 27.595H36.1788C36.4539 27.595 36.6769 27.372 36.6769 27.0969C36.6769 26.8218 36.4539 26.5989 36.1788 26.5989Z" fill="#41A393"/>
<path d="M22.1974 22.7432L18.5773 20.9331C18.5703 20.3678 18.2788 19.8626 17.8121 19.6115C17.6278 19.5124 17.5132 19.3209 17.5132 19.112C17.5132 18.7995 17.7674 18.5454 18.0798 18.5454C18.3922 18.5454 18.6464 18.7995 18.6464 19.112C18.6464 19.3871 18.8694 19.61 19.1444 19.61C19.4195 19.61 19.6425 19.3871 19.6425 19.112C19.6425 18.2503 18.9414 17.5493 18.0798 17.5493C17.2182 17.5493 16.5171 18.2504 16.5171 19.112C16.5171 19.688 16.8324 20.2155 17.34 20.4887C17.4821 20.5651 17.5747 20.7387 17.5806 20.934L13.9623 22.7432C13.568 22.9403 13.3231 23.3365 13.3231 23.7772C13.3231 24.4147 13.8418 24.9332 14.4792 24.9332H14.9201V24.9675C14.9201 25.2426 15.1431 25.4656 15.4182 25.4656C15.6932 25.4656 15.9162 25.2426 15.9162 24.9675V24.9332H20.2434V24.9675C20.2434 25.2426 20.4664 25.4655 20.7414 25.4655C21.0165 25.4655 21.2395 25.2426 21.2395 24.9674V24.9332H21.6804C22.3179 24.9332 22.8365 24.4145 22.8365 23.7772C22.8365 23.3364 22.5916 22.9402 22.1974 22.7432ZM21.6804 23.9371H14.4793C14.3911 23.9371 14.3193 23.8654 14.3193 23.7772C14.3193 23.7163 14.3531 23.6615 14.4077 23.6342L18.0799 21.7982L21.752 23.6343C21.8065 23.6615 21.8404 23.7163 21.8404 23.7772C21.8404 23.8654 21.7686 23.9371 21.6804 23.9371Z" fill="#41A393"/>
<path d="M36.1788 31.9221C35.9037 31.9221 35.6807 32.145 35.6807 32.4202C35.6807 32.7326 35.4265 32.9867 35.1142 32.9867C34.8018 32.9867 34.5476 32.7326 34.5476 32.4202C34.5476 32.2186 34.6562 32.0304 34.831 31.9292C35.0691 31.7914 35.1503 31.4867 35.0125 31.2486C34.8746 31.0106 34.57 30.9292 34.3319 31.0672C33.8505 31.3458 33.5515 31.8643 33.5515 32.4202C33.5515 33.2819 34.2525 33.9829 35.1142 33.9829C35.9758 33.9829 36.6768 33.2818 36.6768 32.4202C36.6768 32.145 36.4538 31.9221 36.1788 31.9221Z" fill="#41A393"/>
</svg>
