<svg width="50" height="51" viewBox="0 0 50 51" fill="none" xmlns="http://www.w3.org/2000/svg">
<circle cx="25" cy="25.5" r="25" fill="#FAFAFA"/>
<g clip-path="url(#clip0)">
<path d="M41.834 26.8328L34.7994 19.7982C34.6419 19.6397 34.4545 19.514 34.2481 19.4285C34.0417 19.343 33.8203 19.2993 33.5969 19.3001H23.8667V20.4334H26.7V28.9334H27.8333V20.4334H33.5969C33.6714 20.4333 33.7452 20.448 33.814 20.4765C33.8829 20.5049 33.9454 20.5467 33.9981 20.5994L34.9654 21.5667H32.3667C32.0661 21.5667 31.7778 21.6861 31.5653 21.8987C31.3527 22.1112 31.2333 22.3995 31.2333 22.7001V27.8001C31.2333 28.1006 31.3527 28.3889 31.5653 28.6014C31.7778 28.814 32.0661 28.9334 32.3667 28.9334H40.8667V33.4667C40.8667 33.617 40.807 33.7611 40.7007 33.8674C40.5944 33.9737 40.4503 34.0334 40.3 34.0334H39.1213C38.9858 33.09 38.5148 32.227 37.7945 31.6028C37.0743 30.9786 36.1531 30.635 35.2 30.635C34.2469 30.635 33.3257 30.9786 32.6055 31.6028C31.8852 32.227 31.4142 33.09 31.2787 34.0334H23.2547C23.1192 33.09 22.6481 32.227 21.9278 31.6028C21.2076 30.9786 20.2864 30.635 19.3333 30.635C18.3802 30.635 17.4591 30.9786 16.7388 31.6028C16.0186 32.227 15.5475 33.09 15.412 34.0334H14.2333C14.083 34.0334 13.9389 33.9737 13.8326 33.8674C13.7264 33.7611 13.6667 33.617 13.6667 33.4667V28.3667H12.5333V33.4667C12.5333 33.9176 12.7124 34.35 13.0313 34.6688C13.3501 34.9876 13.7825 35.1667 14.2333 35.1667H15.412C15.5357 36.0284 15.9402 36.8251 16.5629 37.4334H8V38.5667H35.2C36.1529 38.5649 37.0733 38.2204 37.7932 37.5962C38.5131 36.972 38.9845 36.1097 39.1213 35.1667H40.3C40.7509 35.1667 41.1833 34.9876 41.5021 34.6688C41.8209 34.35 42 33.9176 42 33.4667V27.2334C42 27.0831 41.9402 26.939 41.834 26.8328ZM16.5 34.6001C16.5 34.0397 16.6662 33.4919 16.9775 33.0259C17.2888 32.56 17.7313 32.1968 18.2491 31.9824C18.7668 31.768 19.3365 31.7118 19.8861 31.8212C20.4357 31.9305 20.9406 32.2003 21.3368 32.5966C21.7331 32.9928 22.0029 33.4977 22.1122 34.0473C22.2215 34.5969 22.1654 35.1666 21.951 35.6843C21.7365 36.202 21.3734 36.6446 20.9074 36.9559C20.4415 37.2672 19.8937 37.4334 19.3333 37.4334C18.5822 37.4325 17.862 37.1337 17.3309 36.6025C16.7997 36.0714 16.5009 35.3512 16.5 34.6001ZM22.1038 37.4334C22.7264 36.8251 23.131 36.0284 23.2547 35.1667H31.2787C31.4024 36.0284 31.8069 36.8251 32.4296 37.4334H22.1038ZM35.2 37.4334C34.6396 37.4334 34.0918 37.2672 33.6259 36.9559C33.1599 36.6446 32.7968 36.202 32.5823 35.6843C32.3679 35.1666 32.3118 34.5969 32.4211 34.0473C32.5304 33.4977 32.8003 32.9928 33.1965 32.5966C33.5928 32.2003 34.0976 31.9305 34.6472 31.8212C35.1969 31.7118 35.7665 31.768 36.2843 31.9824C36.802 32.1968 37.2445 32.56 37.5558 33.0259C37.8672 33.4919 38.0333 34.0397 38.0333 34.6001C38.0324 35.3512 37.7336 36.0714 37.2025 36.6025C36.6713 37.1337 35.9512 37.4325 35.2 37.4334ZM32.3667 27.8001V22.7001H36.0987L40.8667 27.468V27.8001H32.3667Z" fill="#41A393"/>
<path d="M19.9 34.0334H18.7667V35.1668H19.9V34.0334Z" fill="#41A393"/>
<path d="M35.7667 34.0334H34.6333V35.1668H35.7667V34.0334Z" fill="#41A393"/>
<path d="M10.8333 32.3333H8V33.4666H10.8333V32.3333Z" fill="#41A393"/>
<path d="M10.8333 30.0667H9.13333V31.2H10.8333V30.0667Z" fill="#41A393"/>
<path d="M10.8333 27.8H9.7V28.9334H10.8333V27.8Z" fill="#41A393"/>
<path d="M15.3667 27.2333C16.8237 27.2333 18.2479 26.8013 19.4594 25.9918C20.6708 25.1824 21.615 24.0318 22.1726 22.6858C22.7301 21.3397 22.876 19.8585 22.5918 18.4295C22.3075 17.0005 21.6059 15.6879 20.5757 14.6576C19.5454 13.6274 18.2328 12.9258 16.8038 12.6416C15.3748 12.3573 13.8936 12.5032 12.5476 13.0608C11.2015 13.6183 10.051 14.5625 9.24151 15.774C8.43205 16.9854 8 18.4097 8 19.8667C8.00225 21.8197 8.7791 23.6922 10.1601 25.0732C11.5412 26.4542 13.4136 27.2311 15.3667 27.2333ZM15.3667 13.6333C16.5995 13.6333 17.8047 13.9989 18.8297 14.6838C19.8548 15.3688 20.6537 16.3423 21.1255 17.4813C21.5973 18.6203 21.7207 19.8736 21.4802 21.0827C21.2397 22.2919 20.646 23.4025 19.7743 24.2743C18.9026 25.146 17.7919 25.7397 16.5827 25.9802C15.3736 26.2207 14.1203 26.0973 12.9813 25.6255C11.8423 25.1537 10.8688 24.3548 10.1838 23.3297C9.49891 22.3046 9.13333 21.0995 9.13333 19.8667C9.13528 18.2141 9.79263 16.6297 10.9612 15.4612C12.1297 14.2926 13.7141 13.6353 15.3667 13.6333Z" fill="#41A393"/>
<path d="M15.3667 24.9666C15.5169 24.9666 15.661 24.9068 15.7673 24.8006C16.1322 24.4356 19.3333 21.1643 19.3333 18.7333C19.3333 17.6812 18.9154 16.6723 18.1715 15.9284C17.4276 15.1845 16.4187 14.7666 15.3667 14.7666C14.3146 14.7666 13.3057 15.1845 12.5618 15.9284C11.8179 16.6723 11.4 17.6812 11.4 18.7333C11.4 21.1643 14.6011 24.4356 14.966 24.8006C15.0723 24.9068 15.2164 24.9666 15.3667 24.9666ZM15.3667 15.8999C16.1178 15.9008 16.838 16.1996 17.3691 16.7308C17.9003 17.262 18.1991 17.9821 18.2 18.7333C18.2 20.1873 16.4167 22.4342 15.3667 23.5788C14.3166 22.4342 12.5333 20.1873 12.5333 18.7333C12.5342 17.9821 12.833 17.262 13.3642 16.7308C13.8953 16.1996 14.6155 15.9008 15.3667 15.8999Z" fill="#41A393"/>
<path d="M17.0667 18.7334C17.0667 18.3972 16.967 18.0685 16.7802 17.789C16.5934 17.5094 16.3279 17.2915 16.0172 17.1629C15.7066 17.0342 15.3648 17.0005 15.035 17.0661C14.7053 17.1317 14.4023 17.2936 14.1646 17.5314C13.9268 17.7691 13.7649 18.072 13.6993 18.4018C13.6337 18.7316 13.6674 19.0734 13.7961 19.384C13.9247 19.6946 14.1426 19.9601 14.4222 20.1469C14.7018 20.3337 15.0304 20.4334 15.3667 20.4334C15.8175 20.4334 16.2499 20.2543 16.5688 19.9355C16.8876 19.6167 17.0667 19.1843 17.0667 18.7334ZM14.8 18.7334C14.8 18.6214 14.8332 18.5118 14.8955 18.4186C14.9578 18.3254 15.0463 18.2528 15.1498 18.2099C15.2534 18.167 15.3673 18.1558 15.4772 18.1777C15.5871 18.1995 15.6881 18.2535 15.7674 18.3328C15.8466 18.412 15.9006 18.513 15.9224 18.6229C15.9443 18.7328 15.9331 18.8468 15.8902 18.9503C15.8473 19.0538 15.7747 19.1423 15.6815 19.2046C15.5883 19.2669 15.4787 19.3001 15.3667 19.3001C15.2164 19.3001 15.0722 19.2404 14.966 19.1341C14.8597 19.0279 14.8 18.8837 14.8 18.7334Z" fill="#41A393"/>
<path d="M31.8 30.0667H29.5333V31.2H31.8V30.0667Z" fill="#41A393"/>
</g>
<defs>
<clipPath id="clip0">
<rect width="34" height="26.0667" fill="white" transform="translate(8 12.5)"/>
</clipPath>
</defs>
</svg>
