<svg width="81" height="80" viewBox="0 0 81 80" fill="none" xmlns="http://www.w3.org/2000/svg">
<g filter="url(#filter0_dd)">
<path fill-rule="evenodd" clip-rule="evenodd" d="M16.0798 12C16.0798 9.79086 17.8707 8 20.0798 8H60.0798C62.289 8 64.0798 9.79086 64.0798 12V52C64.0798 54.2091 62.289 56 60.0798 56H20.0798C17.8707 56 16.0798 54.2091 16.0798 52V12Z" fill="white"/>
<path d="M16.5798 12C16.5798 10.067 18.1468 8.5 20.0798 8.5H60.0798C62.0128 8.5 63.5798 10.067 63.5798 12V52C63.5798 53.933 62.0128 55.5 60.0798 55.5H20.0798C18.1468 55.5 16.5798 53.933 16.5798 52V12Z" stroke="#E4E4E4" stroke-opacity="0.6"/>
<path d="M46.8495 21.1694H33.311C27.3541 21.1694 22.4802 26.0433 22.4802 32.0002C22.4802 37.9571 27.3541 42.831 33.311 42.831H46.8495C52.8064 42.831 57.6803 37.9571 57.6803 32.0002C57.6803 26.0433 52.8064 21.1694 46.8495 21.1694Z" fill="#1565C0"/>
<path d="M33.3106 23.877C28.8429 23.877 25.1875 27.5323 25.1875 32C25.1875 36.4677 28.8429 40.1231 33.3106 40.1231C37.7783 40.1231 41.4337 36.4677 41.4337 32C41.4337 27.5323 37.7783 23.877 33.3106 23.877ZM27.8952 32C27.8952 29.4277 29.6552 27.397 31.9567 26.72V37.1447C29.6552 36.6031 27.8952 34.5723 27.8952 32ZM34.6644 37.28V26.8554C36.966 27.397 38.726 29.5631 38.726 32.1354C38.726 34.5723 36.966 36.6031 34.6644 37.28Z" fill="white"/>
</g>
<defs>
<filter id="filter0_dd" x="0.079834" y="0" width="80" height="80" filterUnits="userSpaceOnUse" color-interpolation-filters="sRGB">
<feFlood flood-opacity="0" result="BackgroundImageFix"/>
<feColorMatrix in="SourceAlpha" type="matrix" values="0 0 0 0 0 0 0 0 0 0 0 0 0 0 0 0 0 0 127 0"/>
<feOffset dy="8"/>
<feGaussianBlur stdDeviation="8"/>
<feColorMatrix type="matrix" values="0 0 0 0 0.196487 0 0 0 0 0.196487 0 0 0 0 0.279476 0 0 0 0.06 0"/>
<feBlend mode="multiply" in2="BackgroundImageFix" result="effect1_dropShadow"/>
<feColorMatrix in="SourceAlpha" type="matrix" values="0 0 0 0 0 0 0 0 0 0 0 0 0 0 0 0 0 0 127 0"/>
<feOffset dy="8"/>
<feGaussianBlur stdDeviation="4"/>
<feColorMatrix type="matrix" values="0 0 0 0 0.196487 0 0 0 0 0.196487 0 0 0 0 0.279476 0 0 0 0.08 0"/>
<feBlend mode="multiply" in2="effect1_dropShadow" result="effect2_dropShadow"/>
<feBlend mode="normal" in="SourceGraphic" in2="effect2_dropShadow" result="shape"/>
</filter>
</defs>
</svg>
