<svg width="18" height="18" viewBox="0 0 18 18" fill="none" xmlns="http://www.w3.org/2000/svg">
<path d="M10.8207 7.85656L8.95271 10.6152L6.19038 13.3637C5.16304 12.058 4.0412 10.7932 3.35724 9.26337L4.84618 6.98247L7.12982 4.7793C6.36658 5.72257 6.42357 7.10991 7.30082 7.98716C8.23935 8.92569 9.76063 8.92569 10.6991 7.98716C10.7414 7.94487 10.7823 7.90117 10.8207 7.85656Z" fill="#ECB72B"/>
<path d="M10.864 7.80491C11.6339 6.86118 11.5793 5.46906 10.6992 4.58945C9.76064 3.65092 8.23936 3.65092 7.30086 4.58945C7.26145 4.62886 7.22391 4.66925 7.18784 4.71056L8.76322 2.14954L10.9005 0.292969C12.4969 0.798305 13.8172 1.92348 14.5796 3.38591L13.0203 5.90014L10.864 7.80491Z" fill="#5085F7"/>
<path d="M7.12974 4.77942L3.35706 9.26358C2.9829 8.42745 2.73965 7.51219 2.71455 6.46763C2.71265 6.40825 2.7117 6.34842 2.7117 6.28858C2.7117 4.75162 3.26313 3.34287 4.17933 2.25049L7.12974 4.77942Z" fill="#DA2F2A"/>
<path d="M7.12976 4.77946L4.17923 2.25035C5.33292 0.874863 7.06416 0 9.00008 0C9.6626 0 10.3012 0.102516 10.9008 0.2925L7.12976 4.77946Z" fill="#4274EB"/>
<path d="M15.2883 6.28817C15.2883 5.24125 15.0324 4.25407 14.5799 3.38574L6.19019 13.364C7.14338 14.5765 8.01434 15.8244 8.37631 17.3526C8.38791 17.4016 8.40039 17.4588 8.41368 17.5231C8.54492 18.1589 9.45536 18.1589 9.5866 17.5231C9.59988 17.4588 9.61236 17.4016 9.62397 17.3526C10.5889 13.2783 15.1719 11.1961 15.2856 6.46761C15.2873 6.40798 15.2883 6.34818 15.2883 6.28817Z" fill="#60A850"/>
</svg>
