<svg width="12" height="12" viewBox="0 0 12 12" fill="none" xmlns="http://www.w3.org/2000/svg">
<path d="M6 0C3.51825 0 1.5 2.01825 1.5 4.5C1.5 7.61925 5.562 11.7172 5.7345 11.8905C5.808 11.9633 5.904 12 6 12C6.096 12 6.192 11.9633 6.2655 11.8905C6.438 11.7172 10.5 7.61925 10.5 4.5C10.5 2.01825 8.48175 0 6 0ZM6 11.0828C5.1045 10.1243 2.25 6.88275 2.25 4.5C2.25 2.43225 3.93225 0.75 6 0.75C8.06775 0.75 9.75 2.43225 9.75 4.5C9.75 6.8805 6.8955 10.1243 6 11.0828Z" fill="#787676"/>
<path d="M6 2.25C4.7595 2.25 3.75 3.2595 3.75 4.5C3.75 5.7405 4.7595 6.75 6 6.75C7.2405 6.75 8.25 5.7405 8.25 4.5C8.25 3.2595 7.2405 2.25 6 2.25ZM6 6C5.17275 6 4.5 5.32725 4.5 4.5C4.5 3.67275 5.17275 3 6 3C6.82725 3 7.5 3.67275 7.5 4.5C7.5 5.32725 6.82725 6 6 6Z" fill="#787676"/>
</svg>
