<svg width="50" height="51" viewBox="0 0 50 51" fill="none" xmlns="http://www.w3.org/2000/svg">
<circle cx="25" cy="25.5" r="25" fill="#FAFAFA"/>
<g clip-path="url(#clip0)">
<path d="M25 8.5C15.6262 8.5 8 16.1262 8 25.5C8 34.8738 15.6262 42.5 25 42.5C34.3738 42.5 42 34.8738 42 25.5C42 16.1262 34.3738 8.5 25 8.5ZM25 40.9545C16.4784 40.9545 9.54545 34.0216 9.54545 25.5C9.54545 16.9784 16.4784 10.0455 25 10.0455C33.5216 10.0455 40.4545 16.9784 40.4545 25.5C40.4545 34.0216 33.5216 40.9545 25 40.9545Z" fill="#41A393"/>
<path d="M25 11.5137C17.2879 11.5137 11.0136 17.7879 11.0136 25.5C11.0136 33.2122 17.2879 39.4864 25 39.4864C32.7121 39.4864 38.9864 33.2122 38.9864 25.5C38.9864 17.7879 32.7121 11.5137 25 11.5137ZM25 39.0228C17.5435 39.0228 11.4773 32.9565 11.4773 25.5C11.4773 18.0435 17.5435 11.9773 25 11.9773C32.4565 11.9773 38.5227 18.0435 38.5227 25.5C38.5227 32.9565 32.4565 39.0228 25 39.0228Z" fill="#41A393"/>
<path d="M20.0604 27.4319V30.932H18.8627V32.3387H23.1127V30.932H21.9149V27.4319H20.0604Z" fill="#41A393"/>
<path d="M29.9396 23.2591V19.759H31.1373V18.3523H26.8873V19.759H28.0851V23.2591H29.9396Z" fill="#41A393"/>
<path d="M28.085 27.4319V28.9381L27.2376 27.4319H25.1097L27.8702 32.3387H29.9396V27.4319H28.085Z" fill="#41A393"/>
<path d="M21.9149 23.2591V21.7529L22.7623 23.2591H24.8902L22.1298 18.3523H20.0604V23.2591H21.9149Z" fill="#41A393"/>
<path d="M32.0318 23.5681H18.2773V25.1136H32.0318V23.5681Z" fill="#41A393"/>
<path d="M32.0318 25.5774H18.2773V27.1228H32.0318V25.5774Z" fill="#41A393"/>
</g>
<defs>
<clipPath id="clip0">
<rect width="34" height="34" fill="white" transform="translate(8 8.5)"/>
</clipPath>
</defs>
</svg>
