<svg width="20" height="20" viewBox="0 0 20 20" fill="none" xmlns="http://www.w3.org/2000/svg">
<circle cx="10" cy="10" r="10" fill="#135A59" fill-opacity="0.1"/>
<path d="M9.98008 14.9635H5.49501C5.21992 14.9635 4.99668 14.7402 4.99668 14.4651V5.49503C4.99668 5.21995 5.21995 4.9967 5.49501 4.9967H9.98008C10.2557 4.9967 10.4784 4.77395 10.4784 4.49837C10.4784 4.2228 10.2557 4 9.98008 4H5.49501C4.67076 4 4 4.67078 4 5.49503V14.4651C4 15.2894 4.67076 15.9601 5.49501 15.9601H9.98008C10.2557 15.9601 10.4784 15.7374 10.4784 15.4618C10.4784 15.1862 10.2557 14.9635 9.98008 14.9635Z" fill="#135A59"/>
<path d="M15.8515 9.62521L12.8216 6.63517C12.6262 6.44181 12.3103 6.44432 12.117 6.64016C11.9236 6.836 11.9256 7.15145 12.1219 7.34481L14.2872 9.48168H8.48505C8.20947 9.48168 7.98672 9.70443 7.98672 9.98C7.98672 10.2556 8.20947 10.4784 8.48505 10.4784H14.2872L12.1219 12.6152C11.9256 12.8086 11.9241 13.124 12.117 13.3199C12.2146 13.4185 12.3432 13.4684 12.4718 13.4684C12.5984 13.4684 12.7249 13.4205 12.8216 13.3248L15.8515 10.3348C15.9462 10.2411 16 10.1135 16 9.97998C16 9.84648 15.9467 9.7194 15.8515 9.62521Z" fill="#135A59"/>
</svg>
