<svg width="337" height="187" viewBox="0 0 337 187" fill="none" xmlns="http://www.w3.org/2000/svg">
<path d="M169 0.000142739C188.33 0.000142739 204 15.6702 204 35.0001C204 54.3299 188.33 70 169 70C149.67 70 134 54.3299 134 35.0001C133.945 15.725 149.526 0.0551447 168.801 0.000142739C168.867 -4.75796e-05 168.934 -4.75796e-05 169 0.000142739Z" fill="#3BB54A"/>
<path d="M188.389 25.3553L163.531 50.2131L149.611 36.3922L155.278 30.8241L163.531 38.9775L182.722 19.7871L188.389 25.3553Z" fill="#D4E1F4"/>
<path d="M68.4336 102.09V119H70.543V112.965H74.4453C77.6211 112.965 79.8828 110.727 79.8828 107.516C79.8828 104.316 77.6445 102.09 74.4688 102.09H68.4336ZM70.543 103.965H73.918C76.3438 103.965 77.7148 105.277 77.7148 107.516C77.7148 109.766 76.332 111.09 73.918 111.09H70.543V103.965ZM84.957 117.477C83.4922 117.477 82.5195 116.715 82.5195 115.555C82.5195 114.406 83.457 113.68 85.0977 113.574L88.3555 113.375V114.371C88.3555 116.129 86.8789 117.477 84.957 117.477ZM84.5 119.211C86.1406 119.211 87.6875 118.297 88.4141 116.902H88.4609V119H90.3945V110.574C90.3945 108.148 88.5898 106.602 85.7305 106.602C82.8477 106.602 81.043 108.219 80.9023 110.328H82.8711C83.1289 109.133 84.1133 108.395 85.6836 108.395C87.3711 108.395 88.3555 109.285 88.3555 110.773V111.793L84.8633 111.992C82.0508 112.156 80.4453 113.469 80.4453 115.555C80.4453 117.746 82.0742 119.211 84.5 119.211ZM93.9922 123.559C96.1953 123.559 97.2031 122.703 98.2461 119.855L103.039 106.812H100.895L97.5195 116.961H97.4844L94.1094 106.812H91.9297L96.4297 119.012L96.1484 119.867C95.6797 121.285 95.0469 121.836 93.9102 121.836C93.6523 121.836 93.3359 121.824 93.1133 121.777V123.488C93.3359 123.535 93.7461 123.559 93.9922 123.559ZM104.656 119H106.695V111.359C106.695 109.672 107.867 108.406 109.484 108.406C110.996 108.406 111.98 109.367 111.98 110.832V119H114.02V111.254C114.02 109.602 115.156 108.406 116.773 108.406C118.379 108.406 119.305 109.391 119.305 111.055V119H121.344V110.586C121.344 108.172 119.785 106.602 117.371 106.602C115.66 106.602 114.23 107.469 113.551 108.922H113.504C112.977 107.445 111.746 106.602 110.082 106.602C108.441 106.602 107.199 107.469 106.625 108.758H106.578V106.812H104.656V119ZM128.832 108.371C130.754 108.371 132.031 109.824 132.078 111.863H125.457C125.586 109.836 126.922 108.371 128.832 108.371ZM132.031 115.508C131.691 116.656 130.555 117.441 129.008 117.441C126.816 117.441 125.445 115.906 125.445 113.574V113.457H134.188V112.684C134.188 108.992 132.16 106.602 128.867 106.602C125.504 106.602 123.348 109.168 123.348 112.953C123.348 116.785 125.469 119.211 128.961 119.211C131.621 119.211 133.684 117.641 134.035 115.508H132.031ZM136.25 119H138.289V111.828C138.289 109.766 139.543 108.406 141.465 108.406C143.34 108.406 144.266 109.484 144.266 111.453V119H146.305V111.09C146.305 108.324 144.758 106.602 142.086 106.602C140.199 106.602 138.898 107.445 138.219 108.758H138.172V106.812H136.25V119ZM149.562 103.871V106.812H147.746V108.488H149.562V115.836C149.562 118.18 150.43 119.094 152.668 119.094C153.148 119.094 153.711 119.059 153.957 119V117.289C153.816 117.312 153.348 117.348 153.113 117.348C152.07 117.348 151.602 116.844 151.602 115.73V108.488H153.969V106.812H151.602V103.871H149.562ZM160.578 114.348C160.777 117.336 163.262 119.281 166.848 119.281C170.738 119.281 173.176 117.348 173.176 114.254C173.176 111.828 171.758 110.48 168.254 109.602L166.484 109.133C164.188 108.535 163.25 107.773 163.25 106.496C163.25 104.844 164.773 103.707 166.965 103.707C169.168 103.707 170.633 104.82 170.82 106.637H172.93C172.836 103.801 170.398 101.809 167.035 101.809C163.52 101.809 161.059 103.777 161.059 106.59C161.059 108.887 162.441 110.258 165.559 111.055L167.727 111.617C170 112.203 170.996 113.082 170.996 114.512C170.996 116.176 169.332 117.383 167.047 117.383C164.633 117.383 162.898 116.176 162.699 114.348H160.578ZM185.328 106.812H183.289V113.973C183.289 116.047 182.094 117.406 180.113 117.406C178.227 117.406 177.301 116.34 177.301 114.359V106.812H175.262V114.723C175.262 117.488 176.82 119.211 179.48 119.211C181.355 119.211 182.621 118.426 183.348 117.02H183.395V119H185.328V106.812ZM198.102 110.809C197.844 108.617 196.027 106.602 192.98 106.602C189.617 106.602 187.379 109.062 187.379 112.906C187.379 116.832 189.629 119.211 193.004 119.211C195.77 119.211 197.809 117.5 198.125 115.074H196.121C195.77 116.539 194.68 117.418 193.016 117.418C190.906 117.418 189.453 115.742 189.453 112.906C189.453 110.141 190.883 108.395 192.992 108.395C194.785 108.395 195.816 109.484 196.109 110.809H198.102ZM210.125 110.809C209.867 108.617 208.051 106.602 205.004 106.602C201.641 106.602 199.402 109.062 199.402 112.906C199.402 116.832 201.652 119.211 205.027 119.211C207.793 119.211 209.832 117.5 210.148 115.074H208.145C207.793 116.539 206.703 117.418 205.039 117.418C202.93 117.418 201.477 115.742 201.477 112.906C201.477 110.141 202.906 108.395 205.016 108.395C206.809 108.395 207.84 109.484 208.133 110.809H210.125ZM216.91 108.371C218.832 108.371 220.109 109.824 220.156 111.863H213.535C213.664 109.836 215 108.371 216.91 108.371ZM220.109 115.508C219.77 116.656 218.633 117.441 217.086 117.441C214.895 117.441 213.523 115.906 213.523 113.574V113.457H222.266V112.684C222.266 108.992 220.238 106.602 216.945 106.602C213.582 106.602 211.426 109.168 211.426 112.953C211.426 116.785 213.547 119.211 217.039 119.211C219.699 119.211 221.762 117.641 222.113 115.508H220.109ZM224.117 110.176C224.117 111.84 225.172 112.941 227.316 113.492L229.461 114.043C230.832 114.406 231.336 114.875 231.336 115.742C231.336 116.844 230.316 117.547 228.664 117.547C227.012 117.547 226.051 116.867 225.828 115.602H223.789C224 117.758 225.863 119.211 228.535 119.211C231.383 119.211 233.387 117.711 233.387 115.59C233.387 113.797 232.496 112.906 230.035 112.285L228.148 111.828C226.766 111.477 226.121 110.914 226.121 110.07C226.121 109.004 227.105 108.266 228.594 108.266C230.094 108.266 231.043 108.992 231.184 110.164H233.129C233.035 108.102 231.184 106.602 228.664 106.602C225.98 106.602 224.117 108.09 224.117 110.176ZM235.297 110.176C235.297 111.84 236.352 112.941 238.496 113.492L240.641 114.043C242.012 114.406 242.516 114.875 242.516 115.742C242.516 116.844 241.496 117.547 239.844 117.547C238.191 117.547 237.23 116.867 237.008 115.602H234.969C235.18 117.758 237.043 119.211 239.715 119.211C242.562 119.211 244.566 117.711 244.566 115.59C244.566 113.797 243.676 112.906 241.215 112.285L239.328 111.828C237.945 111.477 237.301 110.914 237.301 110.07C237.301 109.004 238.285 108.266 239.773 108.266C241.273 108.266 242.223 108.992 242.363 110.164H244.309C244.215 108.102 242.363 106.602 239.844 106.602C237.16 106.602 235.297 108.09 235.297 110.176ZM247.344 119H249.383V108.488H251.867V106.812H249.371V105.465C249.371 104.258 249.898 103.672 251 103.672C251.34 103.672 251.68 103.707 251.926 103.742V102.09C251.633 102.043 251.141 101.996 250.684 101.996C248.434 101.996 247.344 103.109 247.344 105.453V106.812H245.645V108.488H247.344V119ZM263.984 106.812H261.945V113.973C261.945 116.047 260.75 117.406 258.77 117.406C256.883 117.406 255.957 116.34 255.957 114.359V106.812H253.918V114.723C253.918 117.488 255.477 119.211 258.137 119.211C260.012 119.211 261.277 118.426 262.004 117.02H262.051V119H263.984V106.812ZM266.738 119H268.777V102.09H266.738V119Z" fill="#151522"/>
<path d="M16.1689 165V156.627H19.2412V155.84H12.2334V156.627H15.3057V165H16.1689ZM20.936 165H21.7676V160.938C21.7676 159.681 22.5737 158.798 23.8687 158.798C25.0112 158.798 25.6333 159.478 25.6333 160.766V165H26.4648V160.557C26.4648 158.976 25.5508 158.049 24.0908 158.049C22.999 158.049 22.2119 158.551 21.8438 159.395H21.7676V155.44H20.936V165ZM30.5972 164.378C29.6768 164.378 29.0103 163.883 29.0103 163.096C29.0103 162.315 29.5688 161.883 30.7305 161.801L32.7554 161.655V162.455C32.7554 163.54 31.8223 164.378 30.5972 164.378ZM30.4575 165.114C31.4604 165.114 32.2983 164.638 32.7173 163.826H32.7935V165H33.5933V160.309C33.5933 158.887 32.6855 158.049 31.0796 158.049C29.645 158.049 28.585 158.767 28.4263 159.852H29.2705C29.4355 159.192 30.1147 158.792 31.0542 158.792C32.165 158.792 32.7554 159.338 32.7554 160.315V160.976L30.6162 161.115C29.0356 161.223 28.1533 161.915 28.1533 163.108C28.1533 164.333 29.1182 165.114 30.4575 165.114ZM35.7007 165H36.5322V160.938C36.5322 159.649 37.3574 158.798 38.5635 158.798C39.7505 158.798 40.3472 159.465 40.3472 160.766V165H41.1787V160.557C41.1787 158.963 40.3091 158.049 38.7856 158.049C37.6938 158.049 36.9385 158.551 36.5767 159.395H36.4941V158.164H35.7007V165ZM44.2383 161.363H44.1621V155.44H43.3306V165H44.1621V162.347L44.9365 161.629L47.6914 165H48.7578L45.5649 161.096L48.6182 158.164H47.5771L44.2383 161.363ZM54.1978 167.418C55.3149 167.418 55.7974 166.974 56.4067 165.33L59.0664 158.164H58.1777L56.1147 164.092H56.0386L53.9692 158.164H53.0679L55.6323 165.044L55.4927 165.47C55.1562 166.377 54.8135 166.695 54.1851 166.695C54.0835 166.695 53.9058 166.688 53.8105 166.669V167.393C53.9185 167.406 54.0962 167.418 54.1978 167.418ZM63.0908 165.114C65.0015 165.114 66.2012 163.762 66.2012 161.579C66.2012 159.395 65.0015 158.049 63.0908 158.049C61.1802 158.049 59.9868 159.395 59.9868 161.579C59.9868 163.762 61.1802 165.114 63.0908 165.114ZM63.0908 164.359C61.6816 164.359 60.8438 163.312 60.8438 161.579C60.8438 159.846 61.6816 158.798 63.0908 158.798C64.5 158.798 65.3379 159.846 65.3379 161.579C65.3379 163.312 64.5 164.359 63.0908 164.359ZM73.4248 158.164H72.5933V162.226C72.5933 163.521 71.8188 164.353 70.543 164.353C69.3687 164.353 68.772 163.673 68.772 162.397V158.164H67.9404V162.607C67.9404 164.175 68.8037 165.114 70.3271 165.114C71.4189 165.114 72.2124 164.619 72.5552 163.769H72.6313V165H73.4248V158.164ZM78.9346 159.973C78.9346 160.938 79.5312 161.458 80.8008 161.763L81.8354 162.01C82.7495 162.226 83.1748 162.575 83.1748 163.172C83.1748 163.889 82.4194 164.403 81.4165 164.403C80.4263 164.403 79.7725 163.972 79.5884 163.286H78.7251C78.8647 164.41 79.8994 165.114 81.3911 165.114C82.8828 165.114 84.0317 164.289 84.0317 163.108C84.0317 162.118 83.3906 161.585 82.0703 161.268L81.1309 161.045C80.2168 160.83 79.7725 160.506 79.7725 159.941C79.7725 159.255 80.5024 158.76 81.3975 158.76C82.3052 158.76 82.9399 159.179 83.0923 159.82H83.9111C83.7588 158.735 82.7812 158.049 81.4038 158.049C80.0264 158.049 78.9346 158.875 78.9346 159.973ZM88.5703 165.114C90.481 165.114 91.6807 163.762 91.6807 161.579C91.6807 159.395 90.481 158.049 88.5703 158.049C86.6597 158.049 85.4663 159.395 85.4663 161.579C85.4663 163.762 86.6597 165.114 88.5703 165.114ZM88.5703 164.359C87.1611 164.359 86.3232 163.312 86.3232 161.579C86.3232 159.846 87.1611 158.798 88.5703 158.798C89.9795 158.798 90.8174 159.846 90.8174 161.579C90.8174 163.312 89.9795 164.359 88.5703 164.359ZM96.9937 165H97.8252V160.804C97.8252 159.687 98.5933 158.798 99.5835 158.798C100.529 158.798 101.158 159.439 101.158 160.423V165H101.989V160.665C101.989 159.604 102.694 158.798 103.748 158.798C104.776 158.798 105.328 159.395 105.328 160.512V165H106.16V160.322C106.16 158.875 105.366 158.049 103.995 158.049C103.011 158.049 102.211 158.576 101.862 159.395H101.78C101.488 158.576 100.802 158.049 99.8438 158.049C98.8979 158.049 98.168 158.557 97.8696 159.395H97.7871V158.164H96.9937V165ZM113.669 158.164H112.837V162.226C112.837 163.521 112.063 164.353 110.787 164.353C109.613 164.353 109.016 163.673 109.016 162.397V158.164H108.185V162.607C108.185 164.175 109.048 165.114 110.571 165.114C111.663 165.114 112.457 164.619 112.799 163.769H112.875V165H113.669V158.164ZM121.362 160.176C121.159 158.982 120.125 158.049 118.557 158.049C116.671 158.049 115.478 159.42 115.478 161.56C115.478 163.73 116.678 165.114 118.563 165.114C120.125 165.114 121.146 164.257 121.356 163.032H120.512C120.302 163.87 119.566 164.359 118.557 164.359C117.205 164.359 116.335 163.267 116.335 161.56C116.335 159.871 117.198 158.798 118.557 158.798C119.604 158.798 120.309 159.389 120.518 160.176H121.362ZM123.159 165H123.99V160.938C123.99 159.681 124.796 158.798 126.091 158.798C127.234 158.798 127.856 159.478 127.856 160.766V165H128.688V160.557C128.688 158.976 127.773 158.049 126.313 158.049C125.222 158.049 124.435 158.551 124.066 159.395H123.99V155.44H123.159V165ZM134.75 165H135.581V158.868H137.193V158.164H135.581V157.307C135.581 156.513 135.956 156.088 136.743 156.088C136.939 156.088 137.124 156.101 137.257 156.126V155.44C137.047 155.396 136.838 155.377 136.584 155.377C135.397 155.377 134.75 156.018 134.75 157.288V158.164H133.613V158.868H134.75V165ZM141.294 165.114C143.205 165.114 144.404 163.762 144.404 161.579C144.404 159.395 143.205 158.049 141.294 158.049C139.383 158.049 138.19 159.395 138.19 161.579C138.19 163.762 139.383 165.114 141.294 165.114ZM141.294 164.359C139.885 164.359 139.047 163.312 139.047 161.579C139.047 159.846 139.885 158.798 141.294 158.798C142.703 158.798 143.541 159.846 143.541 161.579C143.541 163.312 142.703 164.359 141.294 164.359ZM146.201 165H147.032V160.734C147.032 159.655 147.819 158.855 148.879 158.855C149.127 158.855 149.47 158.894 149.622 158.938V158.106C149.438 158.062 149.209 158.049 148.981 158.049C148.073 158.049 147.305 158.544 147.077 159.287H146.994V158.164H146.201V165ZM154.999 156.386V158.164H153.881V158.868H154.999V163.299C154.999 164.543 155.519 165.038 156.827 165.038C156.973 165.038 157.265 165.019 157.411 164.994V164.283C157.271 164.295 157.049 164.302 156.916 164.302C156.147 164.302 155.83 163.946 155.83 163.108V158.868H157.411V158.164H155.83V156.386H154.999ZM159.226 165H160.058V160.938C160.058 159.681 160.864 158.798 162.159 158.798C163.301 158.798 163.923 159.478 163.923 160.766V165H164.755V160.557C164.755 158.976 163.841 158.049 162.381 158.049C161.289 158.049 160.502 158.551 160.134 159.395H160.058V155.44H159.226V165ZM169.547 158.786C170.785 158.786 171.604 159.706 171.623 161.115H167.364C167.44 159.706 168.303 158.786 169.547 158.786ZM171.541 163.312C171.249 163.984 170.55 164.372 169.579 164.372C168.259 164.372 167.402 163.381 167.357 161.839V161.801H172.493V161.433C172.493 159.344 171.375 158.049 169.554 158.049C167.694 158.049 166.5 159.439 166.5 161.585C166.5 163.743 167.681 165.114 169.56 165.114C170.995 165.114 172.048 164.422 172.385 163.312H171.541ZM180.573 165.114C182.484 165.114 183.684 163.762 183.684 161.579C183.684 159.395 182.484 158.049 180.573 158.049C178.663 158.049 177.469 159.395 177.469 161.579C177.469 163.762 178.663 165.114 180.573 165.114ZM180.573 164.359C179.164 164.359 178.326 163.312 178.326 161.579C178.326 159.846 179.164 158.798 180.573 158.798C181.982 158.798 182.82 159.846 182.82 161.579C182.82 163.312 181.982 164.359 180.573 164.359ZM185.48 165H186.312V160.734C186.312 159.655 187.099 158.855 188.159 158.855C188.406 158.855 188.749 158.894 188.901 158.938V158.106C188.717 158.062 188.489 158.049 188.26 158.049C187.353 158.049 186.584 158.544 186.356 159.287H186.273V158.164H185.48V165ZM192.666 165.114C193.713 165.114 194.595 164.549 195.001 163.635H195.078V165H195.877V155.44H195.046V159.497H194.97C194.583 158.602 193.707 158.049 192.666 158.049C190.933 158.049 189.771 159.465 189.771 161.585C189.771 163.705 190.92 165.114 192.666 165.114ZM192.843 158.798C194.183 158.798 195.059 159.903 195.059 161.579C195.059 163.267 194.189 164.359 192.843 164.359C191.491 164.359 190.628 163.28 190.628 161.579C190.628 159.884 191.491 158.798 192.843 158.798ZM200.791 158.786C202.028 158.786 202.847 159.706 202.866 161.115H198.607C198.683 159.706 199.546 158.786 200.791 158.786ZM202.784 163.312C202.492 163.984 201.793 164.372 200.822 164.372C199.502 164.372 198.645 163.381 198.601 161.839V161.801H203.736V161.433C203.736 159.344 202.619 158.049 200.797 158.049C198.937 158.049 197.744 159.439 197.744 161.585C197.744 163.743 198.924 165.114 200.803 165.114C202.238 165.114 203.292 164.422 203.628 163.312H202.784ZM205.539 165H206.37V160.734C206.37 159.655 207.157 158.855 208.217 158.855C208.465 158.855 208.808 158.894 208.96 158.938V158.106C208.776 158.062 208.547 158.049 208.319 158.049C207.411 158.049 206.643 158.544 206.415 159.287H206.332V158.164H205.539V165ZM210.794 155.834L210.871 162.099H211.677L211.747 155.834H210.794ZM211.271 165.089C211.689 165.089 211.981 164.791 211.981 164.378C211.981 163.959 211.689 163.661 211.271 163.661C210.858 163.661 210.56 163.959 210.56 164.378C210.56 164.791 210.858 165.089 211.271 165.089ZM221.382 165V161.039L224.664 155.84H223.674L220.989 160.157H220.913L218.228 155.84H217.231L220.519 161.039V165H221.382ZM227.952 165.114C229.863 165.114 231.062 163.762 231.062 161.579C231.062 159.395 229.863 158.049 227.952 158.049C226.042 158.049 224.848 159.395 224.848 161.579C224.848 163.762 226.042 165.114 227.952 165.114ZM227.952 164.359C226.543 164.359 225.705 163.312 225.705 161.579C225.705 159.846 226.543 158.798 227.952 158.798C229.361 158.798 230.199 159.846 230.199 161.579C230.199 163.312 229.361 164.359 227.952 164.359ZM238.286 158.164H237.455V162.226C237.455 163.521 236.68 164.353 235.404 164.353C234.23 164.353 233.633 163.673 233.633 162.397V158.164H232.802V162.607C232.802 164.175 233.665 165.114 235.188 165.114C236.28 165.114 237.074 164.619 237.417 163.769H237.493V165H238.286V158.164ZM240.438 165H241.27V160.734C241.27 159.655 242.057 158.855 243.117 158.855C243.364 158.855 243.707 158.894 243.859 158.938V158.106C243.675 158.062 243.447 158.049 243.218 158.049C242.311 158.049 241.542 158.544 241.314 159.287H241.231V158.164H240.438V165ZM252.016 158.049C250.975 158.049 250.093 158.627 249.674 159.56H249.598V158.164H248.804V167.266H249.636V163.699H249.712C250.093 164.581 250.956 165.114 252.016 165.114C253.743 165.114 254.892 163.705 254.892 161.579C254.892 159.452 253.749 158.049 252.016 158.049ZM251.832 164.359C250.499 164.359 249.61 163.254 249.61 161.579C249.61 159.903 250.499 158.798 251.838 158.798C253.184 158.798 254.035 159.877 254.035 161.585C254.035 163.286 253.184 164.359 251.832 164.359ZM258.732 164.378C257.812 164.378 257.145 163.883 257.145 163.096C257.145 162.315 257.704 161.883 258.865 161.801L260.89 161.655V162.455C260.89 163.54 259.957 164.378 258.732 164.378ZM258.592 165.114C259.595 165.114 260.433 164.638 260.852 163.826H260.928V165H261.728V160.309C261.728 158.887 260.82 158.049 259.214 158.049C257.78 158.049 256.72 158.767 256.561 159.852H257.405C257.57 159.192 258.25 158.792 259.189 158.792C260.3 158.792 260.89 159.338 260.89 160.315V160.976L258.751 161.115C257.17 161.223 256.288 161.915 256.288 163.108C256.288 164.333 257.253 165.114 258.592 165.114ZM264.102 167.418C265.219 167.418 265.702 166.974 266.311 165.33L268.971 158.164H268.082L266.019 164.092H265.943L263.874 158.164H262.972L265.537 165.044L265.397 165.47C265.061 166.377 264.718 166.695 264.089 166.695C263.988 166.695 263.81 166.688 263.715 166.669V167.393C263.823 167.406 264 167.418 264.102 167.418ZM270.475 165H271.307V160.804C271.307 159.687 272.075 158.798 273.065 158.798C274.011 158.798 274.639 159.439 274.639 160.423V165H275.471V160.665C275.471 159.604 276.175 158.798 277.229 158.798C278.257 158.798 278.81 159.395 278.81 160.512V165H279.641V160.322C279.641 158.875 278.848 158.049 277.477 158.049C276.493 158.049 275.693 158.576 275.344 159.395H275.261C274.969 158.576 274.284 158.049 273.325 158.049C272.379 158.049 271.649 158.557 271.351 159.395H271.269V158.164H270.475V165ZM284.427 158.786C285.665 158.786 286.484 159.706 286.503 161.115H282.244C282.32 159.706 283.183 158.786 284.427 158.786ZM286.42 163.312C286.128 163.984 285.43 164.372 284.459 164.372C283.139 164.372 282.282 163.381 282.237 161.839V161.801H287.373V161.433C287.373 159.344 286.255 158.049 284.434 158.049C282.574 158.049 281.38 159.439 281.38 161.585C281.38 163.743 282.561 165.114 284.44 165.114C285.875 165.114 286.928 164.422 287.265 163.312H286.42ZM289.175 165H290.007V160.938C290.007 159.649 290.832 158.798 292.038 158.798C293.225 158.798 293.822 159.465 293.822 160.766V165H294.653V160.557C294.653 158.963 293.784 158.049 292.26 158.049C291.168 158.049 290.413 158.551 290.051 159.395H289.969V158.164H289.175V165ZM297.173 156.386V158.164H296.056V158.868H297.173V163.299C297.173 164.543 297.694 165.038 299.001 165.038C299.147 165.038 299.439 165.019 299.585 164.994V164.283C299.446 164.295 299.224 164.302 299.09 164.302C298.322 164.302 298.005 163.946 298.005 163.108V158.868H299.585V158.164H298.005V156.386H297.173ZM304.917 165H305.749V160.938C305.749 159.681 306.555 158.798 307.85 158.798C308.993 158.798 309.615 159.478 309.615 160.766V165H310.446V160.557C310.446 158.976 309.532 158.049 308.072 158.049C306.98 158.049 306.193 158.551 305.825 159.395H305.749V155.44H304.917V165ZM314.579 164.378C313.658 164.378 312.992 163.883 312.992 163.096C312.992 162.315 313.55 161.883 314.712 161.801L316.737 161.655V162.455C316.737 163.54 315.804 164.378 314.579 164.378ZM314.439 165.114C315.442 165.114 316.28 164.638 316.699 163.826H316.775V165H317.575V160.309C317.575 158.887 316.667 158.049 315.061 158.049C313.626 158.049 312.566 158.767 312.408 159.852H313.252C313.417 159.192 314.096 158.792 315.036 158.792C316.146 158.792 316.737 159.338 316.737 160.315V160.976L314.598 161.115C313.017 161.223 312.135 161.915 312.135 163.108C312.135 164.333 313.1 165.114 314.439 165.114ZM319.523 159.973C319.523 160.938 320.12 161.458 321.39 161.763L322.424 162.01C323.338 162.226 323.764 162.575 323.764 163.172C323.764 163.889 323.008 164.403 322.005 164.403C321.015 164.403 320.361 163.972 320.177 163.286H319.314C319.454 164.41 320.488 165.114 321.98 165.114C323.472 165.114 324.621 164.289 324.621 163.108C324.621 162.118 323.979 161.585 322.659 161.268L321.72 161.045C320.806 160.83 320.361 160.506 320.361 159.941C320.361 159.255 321.091 158.76 321.986 158.76C322.894 158.76 323.529 159.179 323.681 159.82H324.5C324.348 158.735 323.37 158.049 321.993 158.049C320.615 158.049 319.523 158.875 319.523 159.973ZM68.3276 183.114C70.0542 183.114 71.2031 181.699 71.2031 179.579C71.2031 177.446 70.0605 176.049 68.3276 176.049C67.293 176.049 66.4043 176.602 66.0234 177.49H65.9473V173.44H65.1157V183H65.9092V181.635H65.9917C66.3979 182.556 67.2803 183.114 68.3276 183.114ZM68.1562 176.798C69.502 176.798 70.3462 177.871 70.3462 179.572C70.3462 181.28 69.502 182.359 68.1562 182.359C66.8105 182.359 65.9282 181.261 65.9282 179.579C65.9282 177.896 66.8105 176.798 68.1562 176.798ZM75.7036 176.786C76.9414 176.786 77.7603 177.706 77.7793 179.115H73.52C73.5962 177.706 74.4595 176.786 75.7036 176.786ZM77.6968 181.312C77.4048 181.984 76.7065 182.372 75.7354 182.372C74.415 182.372 73.5581 181.381 73.5137 179.839V179.801H78.6489V179.433C78.6489 177.344 77.5317 176.049 75.71 176.049C73.8501 176.049 72.6567 177.439 72.6567 179.585C72.6567 181.743 73.8374 183.114 75.7163 183.114C77.1509 183.114 78.2046 182.422 78.541 181.312H77.6968ZM83.1558 176.786C84.3936 176.786 85.2124 177.706 85.2314 179.115H80.9722C81.0483 177.706 81.9116 176.786 83.1558 176.786ZM85.1489 181.312C84.8569 181.984 84.1587 182.372 83.1875 182.372C81.8672 182.372 81.0103 181.381 80.9658 179.839V179.801H86.1011V179.433C86.1011 177.344 84.9839 176.049 83.1621 176.049C81.3022 176.049 80.1089 177.439 80.1089 179.585C80.1089 181.743 81.2896 183.114 83.1685 183.114C84.603 183.114 85.6567 182.422 85.9932 181.312H85.1489ZM87.9038 183H88.7354V178.938C88.7354 177.649 89.5605 176.798 90.7666 176.798C91.9536 176.798 92.5503 177.465 92.5503 178.766V183H93.3818V178.557C93.3818 176.963 92.5122 176.049 90.9888 176.049C89.897 176.049 89.1416 176.551 88.7798 177.395H88.6973V176.164H87.9038V183ZM98.9868 183H99.8184V178.734C99.8184 177.655 100.605 176.855 101.666 176.855C101.913 176.855 102.256 176.894 102.408 176.938V176.106C102.224 176.062 101.996 176.049 101.767 176.049C100.859 176.049 100.091 176.544 99.8628 177.287H99.7803V176.164H98.9868V183ZM106.325 176.786C107.562 176.786 108.381 177.706 108.4 179.115H104.141C104.217 177.706 105.081 176.786 106.325 176.786ZM108.318 181.312C108.026 181.984 107.328 182.372 106.356 182.372C105.036 182.372 104.179 181.381 104.135 179.839V179.801H109.27V179.433C109.27 177.344 108.153 176.049 106.331 176.049C104.471 176.049 103.278 177.439 103.278 179.585C103.278 181.743 104.458 183.114 106.337 183.114C107.772 183.114 108.826 182.422 109.162 181.312H108.318ZM116.614 178.176C116.411 176.982 115.376 176.049 113.809 176.049C111.923 176.049 110.73 177.42 110.73 179.56C110.73 181.73 111.93 183.114 113.815 183.114C115.376 183.114 116.398 182.257 116.608 181.032H115.764C115.554 181.87 114.818 182.359 113.809 182.359C112.457 182.359 111.587 181.267 111.587 179.56C111.587 177.871 112.45 176.798 113.809 176.798C114.856 176.798 115.561 177.389 115.77 178.176H116.614ZM121.051 176.786C122.289 176.786 123.108 177.706 123.127 179.115H118.868C118.944 177.706 119.807 176.786 121.051 176.786ZM123.044 181.312C122.752 181.984 122.054 182.372 121.083 182.372C119.763 182.372 118.906 181.381 118.861 179.839V179.801H123.997V179.433C123.997 177.344 122.879 176.049 121.058 176.049C119.198 176.049 118.004 177.439 118.004 179.585C118.004 181.743 119.185 183.114 121.064 183.114C122.499 183.114 123.552 182.422 123.889 181.312H123.044ZM125.837 183H126.669V176.164H125.837V183ZM126.25 174.64C126.593 174.64 126.872 174.361 126.872 174.018C126.872 173.682 126.593 173.402 126.25 173.402C125.914 173.402 125.634 173.682 125.634 174.018C125.634 174.361 125.914 174.64 126.25 174.64ZM134.191 176.164H133.296L131.233 182.092H131.157L129.087 176.164H128.199L130.75 183H131.639L134.191 176.164ZM138.152 176.786C139.39 176.786 140.208 177.706 140.228 179.115H135.968C136.044 177.706 136.908 176.786 138.152 176.786ZM140.145 181.312C139.853 181.984 139.155 182.372 138.184 182.372C136.863 182.372 136.006 181.381 135.962 179.839V179.801H141.097V179.433C141.097 177.344 139.98 176.049 138.158 176.049C136.298 176.049 135.105 177.439 135.105 179.585C135.105 181.743 136.286 183.114 138.165 183.114C139.599 183.114 140.653 182.422 140.989 181.312H140.145ZM145.452 183.114C146.499 183.114 147.381 182.549 147.788 181.635H147.864V183H148.664V173.44H147.832V177.497H147.756C147.369 176.602 146.493 176.049 145.452 176.049C143.719 176.049 142.557 177.465 142.557 179.585C142.557 181.705 143.706 183.114 145.452 183.114ZM145.629 176.798C146.969 176.798 147.845 177.903 147.845 179.579C147.845 181.267 146.975 182.359 145.629 182.359C144.277 182.359 143.414 181.28 143.414 179.579C143.414 177.884 144.277 176.798 145.629 176.798ZM157.665 183.114C159.391 183.114 160.54 181.699 160.54 179.579C160.54 177.446 159.397 176.049 157.665 176.049C156.63 176.049 155.741 176.602 155.36 177.49H155.284V173.44H154.453V183H155.246V181.635H155.329C155.735 182.556 156.617 183.114 157.665 183.114ZM157.493 176.798C158.839 176.798 159.683 177.871 159.683 179.572C159.683 181.28 158.839 182.359 157.493 182.359C156.147 182.359 155.265 181.261 155.265 179.579C155.265 177.896 156.147 176.798 157.493 176.798ZM162.578 185.418C163.695 185.418 164.177 184.974 164.787 183.33L167.446 176.164H166.558L164.495 182.092H164.418L162.349 176.164H161.448L164.012 183.044L163.873 183.47C163.536 184.377 163.193 184.695 162.565 184.695C162.463 184.695 162.286 184.688 162.19 184.669V185.393C162.298 185.406 162.476 185.418 162.578 185.418ZM172.899 174.386V176.164H171.782V176.868H172.899V181.299C172.899 182.543 173.419 183.038 174.727 183.038C174.873 183.038 175.165 183.019 175.311 182.994V182.283C175.171 182.295 174.949 182.302 174.816 182.302C174.048 182.302 173.73 181.946 173.73 181.108V176.868H175.311V176.164H173.73V174.386H172.899ZM177.126 183H177.958V178.938C177.958 177.681 178.764 176.798 180.059 176.798C181.202 176.798 181.824 177.478 181.824 178.766V183H182.655V178.557C182.655 176.976 181.741 176.049 180.281 176.049C179.189 176.049 178.402 176.551 178.034 177.395H177.958V173.44H177.126V183ZM187.448 176.786C188.686 176.786 189.504 177.706 189.523 179.115H185.264C185.34 177.706 186.204 176.786 187.448 176.786ZM189.441 181.312C189.149 181.984 188.451 182.372 187.479 182.372C186.159 182.372 185.302 181.381 185.258 179.839V179.801H190.393V179.433C190.393 177.344 189.276 176.049 187.454 176.049C185.594 176.049 184.401 177.439 184.401 179.585C184.401 181.743 185.582 183.114 187.46 183.114C188.895 183.114 189.949 182.422 190.285 181.312H189.441ZM198.264 183.114C199.312 183.114 200.194 182.549 200.6 181.635H200.676V183H201.476V173.44H200.645V177.497H200.568C200.181 176.602 199.305 176.049 198.264 176.049C196.531 176.049 195.37 177.465 195.37 179.585C195.37 181.705 196.519 183.114 198.264 183.114ZM198.442 176.798C199.781 176.798 200.657 177.903 200.657 179.579C200.657 181.267 199.788 182.359 198.442 182.359C197.09 182.359 196.227 181.28 196.227 179.579C196.227 177.884 197.09 176.798 198.442 176.798ZM203.685 183H204.517V178.734C204.517 177.655 205.304 176.855 206.364 176.855C206.611 176.855 206.954 176.894 207.106 176.938V176.106C206.922 176.062 206.694 176.049 206.465 176.049C205.558 176.049 204.79 176.544 204.561 177.287H204.479V176.164H203.685V183ZM209.017 185.418C210.134 185.418 210.617 184.974 211.226 183.33L213.886 176.164H212.997L210.934 182.092H210.858L208.789 176.164H207.887L210.452 183.044L210.312 183.47C209.976 184.377 209.633 184.695 209.004 184.695C208.903 184.695 208.725 184.688 208.63 184.669V185.393C208.738 185.406 208.916 185.418 209.017 185.418ZM224.448 178.176C224.245 176.982 223.21 176.049 221.643 176.049C219.757 176.049 218.564 177.42 218.564 179.56C218.564 181.73 219.764 183.114 221.649 183.114C223.21 183.114 224.232 182.257 224.442 181.032H223.598C223.388 181.87 222.652 182.359 221.643 182.359C220.291 182.359 219.421 181.267 219.421 179.56C219.421 177.871 220.284 176.798 221.643 176.798C222.69 176.798 223.395 177.389 223.604 178.176H224.448ZM226.245 183H227.076V173.44H226.245V183ZM231.996 176.786C233.233 176.786 234.052 177.706 234.071 179.115H229.812C229.888 177.706 230.751 176.786 231.996 176.786ZM233.989 181.312C233.697 181.984 232.999 182.372 232.027 182.372C230.707 182.372 229.85 181.381 229.806 179.839V179.801H234.941V179.433C234.941 177.344 233.824 176.049 232.002 176.049C230.142 176.049 228.949 177.439 228.949 179.585C228.949 181.743 230.129 183.114 232.008 183.114C233.443 183.114 234.497 182.422 234.833 181.312H233.989ZM238.788 182.378C237.867 182.378 237.201 181.883 237.201 181.096C237.201 180.315 237.759 179.883 238.921 179.801L240.946 179.655V180.455C240.946 181.54 240.013 182.378 238.788 182.378ZM238.648 183.114C239.651 183.114 240.489 182.638 240.908 181.826H240.984V183H241.784V178.309C241.784 176.887 240.876 176.049 239.27 176.049C237.835 176.049 236.775 176.767 236.617 177.852H237.461C237.626 177.192 238.305 176.792 239.245 176.792C240.355 176.792 240.946 177.338 240.946 178.315V178.976L238.807 179.115C237.226 179.223 236.344 179.915 236.344 181.108C236.344 182.333 237.309 183.114 238.648 183.114ZM243.891 183H244.723V178.938C244.723 177.649 245.548 176.798 246.754 176.798C247.941 176.798 248.538 177.465 248.538 178.766V183H249.369V178.557C249.369 176.963 248.5 176.049 246.976 176.049C245.884 176.049 245.129 176.551 244.767 177.395H244.685V176.164H243.891V183ZM254.162 176.786C255.399 176.786 256.218 177.706 256.237 179.115H251.978C252.054 177.706 252.917 176.786 254.162 176.786ZM256.155 181.312C255.863 181.984 255.165 182.372 254.193 182.372C252.873 182.372 252.016 181.381 251.972 179.839V179.801H257.107V179.433C257.107 177.344 255.99 176.049 254.168 176.049C252.308 176.049 251.115 177.439 251.115 179.585C251.115 181.743 252.295 183.114 254.174 183.114C255.609 183.114 256.663 182.422 256.999 181.312H256.155ZM258.91 183H259.741V178.734C259.741 177.655 260.528 176.855 261.588 176.855C261.836 176.855 262.179 176.894 262.331 176.938V176.106C262.147 176.062 261.918 176.049 261.69 176.049C260.782 176.049 260.014 176.544 259.786 177.287H259.703V176.164H258.91V183ZM263.448 177.973C263.448 178.938 264.045 179.458 265.314 179.763L266.349 180.01C267.263 180.226 267.688 180.575 267.688 181.172C267.688 181.889 266.933 182.403 265.93 182.403C264.94 182.403 264.286 181.972 264.102 181.286H263.239C263.378 182.41 264.413 183.114 265.905 183.114C267.396 183.114 268.545 182.289 268.545 181.108C268.545 180.118 267.904 179.585 266.584 179.268L265.645 179.045C264.73 178.83 264.286 178.506 264.286 177.941C264.286 177.255 265.016 176.76 265.911 176.76C266.819 176.76 267.454 177.179 267.606 177.82H268.425C268.272 176.735 267.295 176.049 265.917 176.049C264.54 176.049 263.448 176.875 263.448 177.973ZM271.135 183.051C271.51 183.051 271.802 182.752 271.802 182.384C271.802 182.01 271.51 181.711 271.135 181.711C270.761 181.711 270.462 182.01 270.462 182.384C270.462 182.752 270.761 183.051 271.135 183.051Z" fill="#999999"/>
</svg>
