<svg width="337" height="187" viewBox="0 0 337 187" fill="none" xmlns="http://www.w3.org/2000/svg">
<path d="M168 0C148.67 0 133 15.6703 133 35C133 54.3297 148.67 70 168 70C187.33 70 203 54.3297 203 35C203 15.6703 187.33 0 168 0ZM139.034 35C139.034 19.0291 152.029 6.03448 168 6.03448C175.056 6.03448 181.527 8.57259 186.556 12.7798L145.78 53.556C141.573 48.5269 139.034 42.0543 139.034 35ZM168 63.9655C161.253 63.9655 155.043 61.6398 150.114 57.7572L190.757 17.1126C194.64 22.0428 196.966 28.2534 196.966 35C196.966 50.9709 183.971 63.9655 168 63.9655Z" fill="#DD352E"/>
<path d="M94.0156 102.09V119H96.125V112.965H100.027C103.203 112.965 105.465 110.727 105.465 107.516C105.465 104.316 103.227 102.09 100.051 102.09H94.0156ZM96.125 103.965H99.5C101.926 103.965 103.297 105.277 103.297 107.516C103.297 109.766 101.914 111.09 99.5 111.09H96.125V103.965ZM110.539 117.477C109.074 117.477 108.102 116.715 108.102 115.555C108.102 114.406 109.039 113.68 110.68 113.574L113.938 113.375V114.371C113.938 116.129 112.461 117.477 110.539 117.477ZM110.082 119.211C111.723 119.211 113.27 118.297 113.996 116.902H114.043V119H115.977V110.574C115.977 108.148 114.172 106.602 111.312 106.602C108.43 106.602 106.625 108.219 106.484 110.328H108.453C108.711 109.133 109.695 108.395 111.266 108.395C112.953 108.395 113.938 109.285 113.938 110.773V111.793L110.445 111.992C107.633 112.156 106.027 113.469 106.027 115.555C106.027 117.746 107.656 119.211 110.082 119.211ZM119.574 123.559C121.777 123.559 122.785 122.703 123.828 119.855L128.621 106.812H126.477L123.102 116.961H123.066L119.691 106.812H117.512L122.012 119.012L121.73 119.867C121.262 121.285 120.629 121.836 119.492 121.836C119.234 121.836 118.918 121.824 118.695 121.777V123.488C118.918 123.535 119.328 123.559 119.574 123.559ZM130.238 119H132.277V111.359C132.277 109.672 133.449 108.406 135.066 108.406C136.578 108.406 137.562 109.367 137.562 110.832V119H139.602V111.254C139.602 109.602 140.738 108.406 142.355 108.406C143.961 108.406 144.887 109.391 144.887 111.055V119H146.926V110.586C146.926 108.172 145.367 106.602 142.953 106.602C141.242 106.602 139.812 107.469 139.133 108.922H139.086C138.559 107.445 137.328 106.602 135.664 106.602C134.023 106.602 132.781 107.469 132.207 108.758H132.16V106.812H130.238V119ZM154.414 108.371C156.336 108.371 157.613 109.824 157.66 111.863H151.039C151.168 109.836 152.504 108.371 154.414 108.371ZM157.613 115.508C157.273 116.656 156.137 117.441 154.59 117.441C152.398 117.441 151.027 115.906 151.027 113.574V113.457H159.77V112.684C159.77 108.992 157.742 106.602 154.449 106.602C151.086 106.602 148.93 109.168 148.93 112.953C148.93 116.785 151.051 119.211 154.543 119.211C157.203 119.211 159.266 117.641 159.617 115.508H157.613ZM161.832 119H163.871V111.828C163.871 109.766 165.125 108.406 167.047 108.406C168.922 108.406 169.848 109.484 169.848 111.453V119H171.887V111.09C171.887 108.324 170.34 106.602 167.668 106.602C165.781 106.602 164.48 107.445 163.801 108.758H163.754V106.812H161.832V119ZM175.145 103.871V106.812H173.328V108.488H175.145V115.836C175.145 118.18 176.012 119.094 178.25 119.094C178.73 119.094 179.293 119.059 179.539 119V117.289C179.398 117.312 178.93 117.348 178.695 117.348C177.652 117.348 177.184 116.844 177.184 115.73V108.488H179.551V106.812H177.184V103.871H175.145ZM189.078 119V111.676H196.566V109.801H189.078V103.988H197.234V102.09H186.969V119H189.078ZM202.531 117.477C201.066 117.477 200.094 116.715 200.094 115.555C200.094 114.406 201.031 113.68 202.672 113.574L205.93 113.375V114.371C205.93 116.129 204.453 117.477 202.531 117.477ZM202.074 119.211C203.715 119.211 205.262 118.297 205.988 116.902H206.035V119H207.969V110.574C207.969 108.148 206.164 106.602 203.305 106.602C200.422 106.602 198.617 108.219 198.477 110.328H200.445C200.703 109.133 201.688 108.395 203.258 108.395C204.945 108.395 205.93 109.285 205.93 110.773V111.793L202.438 111.992C199.625 112.156 198.02 113.469 198.02 115.555C198.02 117.746 199.648 119.211 202.074 119.211ZM210.664 119H212.703V106.812H210.664V119ZM211.684 104.762C212.387 104.762 212.961 104.188 212.961 103.496C212.961 102.793 212.387 102.23 211.684 102.23C210.992 102.23 210.418 102.793 210.418 103.496C210.418 104.188 210.992 104.762 211.684 104.762ZM215.562 119H217.602V102.09H215.562V119ZM225.242 108.371C227.164 108.371 228.441 109.824 228.488 111.863H221.867C221.996 109.836 223.332 108.371 225.242 108.371ZM228.441 115.508C228.102 116.656 226.965 117.441 225.418 117.441C223.227 117.441 221.855 115.906 221.855 113.574V113.457H230.598V112.684C230.598 108.992 228.57 106.602 225.277 106.602C221.914 106.602 219.758 109.168 219.758 112.953C219.758 116.785 221.879 119.211 225.371 119.211C228.031 119.211 230.094 117.641 230.445 115.508H228.441ZM237.277 119.211C239.035 119.211 240.43 118.344 241.215 116.938H241.25V119H243.195V102.09H241.156V108.793H241.109C240.383 107.457 238.977 106.602 237.23 106.602C234.16 106.602 232.062 109.086 232.062 112.906C232.062 116.727 234.172 119.211 237.277 119.211ZM237.664 108.395C239.762 108.395 241.168 110.188 241.168 112.906C241.168 115.637 239.762 117.418 237.664 117.418C235.508 117.418 234.148 115.672 234.148 112.906C234.148 110.152 235.508 108.395 237.664 108.395Z" fill="#151522"/>
<path d="M38.8491 165V161.039L42.1309 155.84H41.1406L38.4556 160.157H38.3794L35.6943 155.84H34.6978L37.9858 161.039V165H38.8491ZM45.4189 165.114C47.3296 165.114 48.5293 163.762 48.5293 161.579C48.5293 159.395 47.3296 158.049 45.4189 158.049C43.5083 158.049 42.3149 159.395 42.3149 161.579C42.3149 163.762 43.5083 165.114 45.4189 165.114ZM45.4189 164.359C44.0098 164.359 43.1719 163.312 43.1719 161.579C43.1719 159.846 44.0098 158.798 45.4189 158.798C46.8281 158.798 47.666 159.846 47.666 161.579C47.666 163.312 46.8281 164.359 45.4189 164.359ZM55.7529 158.164H54.9214V162.226C54.9214 163.521 54.147 164.353 52.8711 164.353C51.6968 164.353 51.1001 163.673 51.1001 162.397V158.164H50.2686V162.607C50.2686 164.175 51.1318 165.114 52.6553 165.114C53.7471 165.114 54.5405 164.619 54.8833 163.769H54.9595V165H55.7529V158.164ZM57.9048 165H58.7363V160.734C58.7363 159.655 59.5234 158.855 60.5835 158.855C60.8311 158.855 61.1738 158.894 61.3262 158.938V158.106C61.1421 158.062 60.9136 158.049 60.6851 158.049C59.7773 158.049 59.0093 158.544 58.7808 159.287H58.6982V158.164H57.9048V165ZM69.4829 158.049C68.4419 158.049 67.5596 158.627 67.1406 159.56H67.0645V158.164H66.271V167.266H67.1025V163.699H67.1787C67.5596 164.581 68.4229 165.114 69.4829 165.114C71.2095 165.114 72.3584 163.705 72.3584 161.579C72.3584 159.452 71.2158 158.049 69.4829 158.049ZM69.2988 164.359C67.9658 164.359 67.0771 163.254 67.0771 161.579C67.0771 159.903 67.9658 158.798 69.3052 158.798C70.6509 158.798 71.5015 159.877 71.5015 161.585C71.5015 163.286 70.6509 164.359 69.2988 164.359ZM76.1987 164.378C75.2783 164.378 74.6118 163.883 74.6118 163.096C74.6118 162.315 75.1704 161.883 76.332 161.801L78.3569 161.655V162.455C78.3569 163.54 77.4238 164.378 76.1987 164.378ZM76.0591 165.114C77.062 165.114 77.8999 164.638 78.3188 163.826H78.395V165H79.1948V160.309C79.1948 158.887 78.2871 158.049 76.6812 158.049C75.2466 158.049 74.1865 158.767 74.0278 159.852H74.8721C75.0371 159.192 75.7163 158.792 76.6558 158.792C77.7666 158.792 78.3569 159.338 78.3569 160.315V160.976L76.2178 161.115C74.6372 161.223 73.7549 161.915 73.7549 163.108C73.7549 164.333 74.7197 165.114 76.0591 165.114ZM81.5688 167.418C82.686 167.418 83.1685 166.974 83.7778 165.33L86.4375 158.164H85.5488L83.4858 164.092H83.4097L81.3403 158.164H80.439L83.0034 165.044L82.8638 165.47C82.5273 166.377 82.1846 166.695 81.5562 166.695C81.4546 166.695 81.2769 166.688 81.1816 166.669V167.393C81.2896 167.406 81.4673 167.418 81.5688 167.418ZM87.9419 165H88.7734V160.804C88.7734 159.687 89.5415 158.798 90.5317 158.798C91.4775 158.798 92.106 159.439 92.106 160.423V165H92.9375V160.665C92.9375 159.604 93.6421 158.798 94.6958 158.798C95.7241 158.798 96.2764 159.395 96.2764 160.512V165H97.1079V160.322C97.1079 158.875 96.3145 158.049 94.9434 158.049C93.9595 158.049 93.1597 158.576 92.8105 159.395H92.728C92.436 158.576 91.7505 158.049 90.792 158.049C89.8462 158.049 89.1162 158.557 88.8179 159.395H88.7354V158.164H87.9419V165ZM101.894 158.786C103.132 158.786 103.951 159.706 103.97 161.115H99.7104C99.7866 159.706 100.65 158.786 101.894 158.786ZM103.887 163.312C103.595 163.984 102.897 164.372 101.926 164.372C100.605 164.372 99.7485 163.381 99.7041 161.839V161.801H104.839V161.433C104.839 159.344 103.722 158.049 101.9 158.049C100.041 158.049 98.8472 159.439 98.8472 161.585C98.8472 163.743 100.028 165.114 101.907 165.114C103.341 165.114 104.395 164.422 104.731 163.312H103.887ZM106.642 165H107.474V160.938C107.474 159.649 108.299 158.798 109.505 158.798C110.692 158.798 111.289 159.465 111.289 160.766V165H112.12V160.557C112.12 158.963 111.25 158.049 109.727 158.049C108.635 158.049 107.88 158.551 107.518 159.395H107.436V158.164H106.642V165ZM114.64 156.386V158.164H113.523V158.868H114.64V163.299C114.64 164.543 115.161 165.038 116.468 165.038C116.614 165.038 116.906 165.019 117.052 164.994V164.283C116.913 164.295 116.69 164.302 116.557 164.302C115.789 164.302 115.472 163.946 115.472 163.108V158.868H117.052V158.164H115.472V156.386H114.64ZM127.862 160.176C127.659 158.982 126.625 158.049 125.057 158.049C123.171 158.049 121.978 159.42 121.978 161.56C121.978 163.73 123.178 165.114 125.063 165.114C126.625 165.114 127.646 164.257 127.856 163.032H127.012C126.802 163.87 126.066 164.359 125.057 164.359C123.705 164.359 122.835 163.267 122.835 161.56C122.835 159.871 123.698 158.798 125.057 158.798C126.104 158.798 126.809 159.389 127.018 160.176H127.862ZM132.356 165.114C134.267 165.114 135.467 163.762 135.467 161.579C135.467 159.395 134.267 158.049 132.356 158.049C130.446 158.049 129.252 159.395 129.252 161.579C129.252 163.762 130.446 165.114 132.356 165.114ZM132.356 164.359C130.947 164.359 130.109 163.312 130.109 161.579C130.109 159.846 130.947 158.798 132.356 158.798C133.766 158.798 134.604 159.846 134.604 161.579C134.604 163.312 133.766 164.359 132.356 164.359ZM142.69 158.164H141.859V162.226C141.859 163.521 141.084 164.353 139.809 164.353C138.634 164.353 138.038 163.673 138.038 162.397V158.164H137.206V162.607C137.206 164.175 138.069 165.114 139.593 165.114C140.685 165.114 141.478 164.619 141.821 163.769H141.897V165H142.69V158.164ZM144.906 165H145.737V155.44H144.906V165ZM150.504 165.114C151.552 165.114 152.434 164.549 152.84 163.635H152.917V165H153.716V155.44H152.885V159.497H152.809C152.421 158.602 151.545 158.049 150.504 158.049C148.771 158.049 147.61 159.465 147.61 161.585C147.61 163.705 148.759 165.114 150.504 165.114ZM150.682 158.798C152.021 158.798 152.897 159.903 152.897 161.579C152.897 163.267 152.028 164.359 150.682 164.359C149.33 164.359 148.467 163.28 148.467 161.579C148.467 159.884 149.33 158.798 150.682 158.798ZM159.442 165H160.273V160.938C160.273 159.649 161.099 158.798 162.305 158.798C163.492 158.798 164.088 159.465 164.088 160.766V165H164.92V160.557C164.92 158.963 164.05 158.049 162.527 158.049C161.435 158.049 160.68 158.551 160.318 159.395H160.235V158.164H159.442V165ZM169.77 165.114C171.68 165.114 172.88 163.762 172.88 161.579C172.88 159.395 171.68 158.049 169.77 158.049C167.859 158.049 166.666 159.395 166.666 161.579C166.666 163.762 167.859 165.114 169.77 165.114ZM169.77 164.359C168.36 164.359 167.522 163.312 167.522 161.579C167.522 159.846 168.36 158.798 169.77 158.798C171.179 158.798 172.017 159.846 172.017 161.579C172.017 163.312 171.179 164.359 169.77 164.359ZM175.108 156.386V158.164H173.991V158.868H175.108V163.299C175.108 164.543 175.628 165.038 176.936 165.038C177.082 165.038 177.374 165.019 177.52 164.994V164.283C177.38 164.295 177.158 164.302 177.025 164.302C176.257 164.302 175.939 163.946 175.939 163.108V158.868H177.52V158.164H175.939V156.386H175.108ZM186.064 165.114C187.791 165.114 188.939 163.699 188.939 161.579C188.939 159.446 187.797 158.049 186.064 158.049C185.029 158.049 184.141 158.602 183.76 159.49H183.684V155.44H182.852V165H183.646V163.635H183.728C184.134 164.556 185.017 165.114 186.064 165.114ZM185.893 158.798C187.238 158.798 188.083 159.871 188.083 161.572C188.083 163.28 187.238 164.359 185.893 164.359C184.547 164.359 183.665 163.261 183.665 161.579C183.665 159.896 184.547 158.798 185.893 158.798ZM193.44 158.786C194.678 158.786 195.497 159.706 195.516 161.115H191.256C191.333 159.706 192.196 158.786 193.44 158.786ZM195.433 163.312C195.141 163.984 194.443 164.372 193.472 164.372C192.151 164.372 191.294 163.381 191.25 161.839V161.801H196.385V161.433C196.385 159.344 195.268 158.049 193.446 158.049C191.586 158.049 190.393 159.439 190.393 161.585C190.393 163.743 191.574 165.114 193.453 165.114C194.887 165.114 195.941 164.422 196.277 163.312H195.433ZM204.917 158.049C203.875 158.049 202.993 158.627 202.574 159.56H202.498V158.164H201.705V167.266H202.536V163.699H202.612C202.993 164.581 203.856 165.114 204.917 165.114C206.643 165.114 207.792 163.705 207.792 161.579C207.792 159.452 206.649 158.049 204.917 158.049ZM204.732 164.359C203.399 164.359 202.511 163.254 202.511 161.579C202.511 159.903 203.399 158.798 204.739 158.798C206.084 158.798 206.935 159.877 206.935 161.585C206.935 163.286 206.084 164.359 204.732 164.359ZM209.588 165H210.42V160.734C210.42 159.655 211.207 158.855 212.267 158.855C212.515 158.855 212.857 158.894 213.01 158.938V158.106C212.826 158.062 212.597 158.049 212.369 158.049C211.461 158.049 210.693 158.544 210.464 159.287H210.382V158.164H209.588V165ZM216.983 165.114C218.894 165.114 220.094 163.762 220.094 161.579C220.094 159.395 218.894 158.049 216.983 158.049C215.073 158.049 213.879 159.395 213.879 161.579C213.879 163.762 215.073 165.114 216.983 165.114ZM216.983 164.359C215.574 164.359 214.736 163.312 214.736 161.579C214.736 159.846 215.574 158.798 216.983 158.798C218.393 158.798 219.23 159.846 219.23 161.579C219.23 163.312 218.393 164.359 216.983 164.359ZM227.432 160.176C227.229 158.982 226.194 158.049 224.626 158.049C222.741 158.049 221.547 159.42 221.547 161.56C221.547 163.73 222.747 165.114 224.632 165.114C226.194 165.114 227.216 164.257 227.425 163.032H226.581C226.372 163.87 225.635 164.359 224.626 164.359C223.274 164.359 222.404 163.267 222.404 161.56C222.404 159.871 223.268 158.798 224.626 158.798C225.673 158.798 226.378 159.389 226.587 160.176H227.432ZM231.869 158.786C233.106 158.786 233.925 159.706 233.944 161.115H229.685C229.761 159.706 230.625 158.786 231.869 158.786ZM233.862 163.312C233.57 163.984 232.872 164.372 231.9 164.372C230.58 164.372 229.723 163.381 229.679 161.839V161.801H234.814V161.433C234.814 159.344 233.697 158.049 231.875 158.049C230.015 158.049 228.822 159.439 228.822 161.585C228.822 163.743 230.002 165.114 231.881 165.114C233.316 165.114 234.37 164.422 234.706 163.312H233.862ZM236.458 159.973C236.458 160.938 237.055 161.458 238.324 161.763L239.359 162.01C240.273 162.226 240.698 162.575 240.698 163.172C240.698 163.889 239.943 164.403 238.94 164.403C237.95 164.403 237.296 163.972 237.112 163.286H236.249C236.388 164.41 237.423 165.114 238.915 165.114C240.406 165.114 241.555 164.289 241.555 163.108C241.555 162.118 240.914 161.585 239.594 161.268L238.654 161.045C237.74 160.83 237.296 160.506 237.296 159.941C237.296 159.255 238.026 158.76 238.921 158.76C239.829 158.76 240.463 159.179 240.616 159.82H241.435C241.282 158.735 240.305 158.049 238.927 158.049C237.55 158.049 236.458 158.875 236.458 159.973ZM243.047 159.973C243.047 160.938 243.644 161.458 244.913 161.763L245.948 162.01C246.862 162.226 247.287 162.575 247.287 163.172C247.287 163.889 246.532 164.403 245.529 164.403C244.539 164.403 243.885 163.972 243.701 163.286H242.837C242.977 164.41 244.012 165.114 245.503 165.114C246.995 165.114 248.144 164.289 248.144 163.108C248.144 162.118 247.503 161.585 246.183 161.268L245.243 161.045C244.329 160.83 243.885 160.506 243.885 159.941C243.885 159.255 244.615 158.76 245.51 158.76C246.417 158.76 247.052 159.179 247.205 159.82H248.023C247.871 158.735 246.894 158.049 245.516 158.049C244.139 158.049 243.047 158.875 243.047 159.973ZM252.625 158.786C253.863 158.786 254.682 159.706 254.701 161.115H250.442C250.518 159.706 251.381 158.786 252.625 158.786ZM254.619 163.312C254.327 163.984 253.628 164.372 252.657 164.372C251.337 164.372 250.48 163.381 250.436 161.839V161.801H255.571V161.433C255.571 159.344 254.454 158.049 252.632 158.049C250.772 158.049 249.579 159.439 249.579 161.585C249.579 163.743 250.759 165.114 252.638 165.114C254.073 165.114 255.126 164.422 255.463 163.312H254.619ZM259.925 165.114C260.973 165.114 261.855 164.549 262.261 163.635H262.337V165H263.137V155.44H262.306V159.497H262.229C261.842 158.602 260.966 158.049 259.925 158.049C258.192 158.049 257.031 159.465 257.031 161.585C257.031 163.705 258.18 165.114 259.925 165.114ZM260.103 158.798C261.442 158.798 262.318 159.903 262.318 161.579C262.318 163.267 261.449 164.359 260.103 164.359C258.751 164.359 257.888 163.28 257.888 161.579C257.888 159.884 258.751 158.798 260.103 158.798ZM270.907 164.378C269.986 164.378 269.32 163.883 269.32 163.096C269.32 162.315 269.878 161.883 271.04 161.801L273.065 161.655V162.455C273.065 163.54 272.132 164.378 270.907 164.378ZM270.767 165.114C271.77 165.114 272.608 164.638 273.027 163.826H273.103V165H273.903V160.309C273.903 158.887 272.995 158.049 271.389 158.049C269.955 158.049 268.895 158.767 268.736 159.852H269.58C269.745 159.192 270.424 158.792 271.364 158.792C272.475 158.792 273.065 159.338 273.065 160.315V160.976L270.926 161.115C269.345 161.223 268.463 161.915 268.463 163.108C268.463 164.333 269.428 165.114 270.767 165.114ZM276.442 156.386V158.164H275.325V158.868H276.442V163.299C276.442 164.543 276.962 165.038 278.27 165.038C278.416 165.038 278.708 165.019 278.854 164.994V164.283C278.714 164.295 278.492 164.302 278.359 164.302C277.591 164.302 277.273 163.946 277.273 163.108V158.868H278.854V158.164H277.273V156.386H276.442ZM284.554 156.386V158.164H283.437V158.868H284.554V163.299C284.554 164.543 285.075 165.038 286.382 165.038C286.528 165.038 286.82 165.019 286.966 164.994V164.283C286.827 164.295 286.604 164.302 286.471 164.302C285.703 164.302 285.386 163.946 285.386 163.108V158.868H286.966V158.164H285.386V156.386H284.554ZM288.782 165H289.613V160.938C289.613 159.681 290.419 158.798 291.714 158.798C292.857 158.798 293.479 159.478 293.479 160.766V165H294.311V160.557C294.311 158.976 293.396 158.049 291.937 158.049C290.845 158.049 290.058 158.551 289.689 159.395H289.613V155.44H288.782V165ZM299.103 158.786C300.341 158.786 301.16 159.706 301.179 161.115H296.919C296.996 159.706 297.859 158.786 299.103 158.786ZM301.096 163.312C300.804 163.984 300.106 164.372 299.135 164.372C297.814 164.372 296.958 163.381 296.913 161.839V161.801H302.048V161.433C302.048 159.344 300.931 158.049 299.109 158.049C297.25 158.049 296.056 159.439 296.056 161.585C296.056 163.743 297.237 165.114 299.116 165.114C300.55 165.114 301.604 164.422 301.94 163.312H301.096ZM93.3501 183H94.1816V178.804C94.1816 177.687 94.9497 176.798 95.9399 176.798C96.8857 176.798 97.5142 177.439 97.5142 178.423V183H98.3457V178.665C98.3457 177.604 99.0503 176.798 100.104 176.798C101.132 176.798 101.685 177.395 101.685 178.512V183H102.516V178.322C102.516 176.875 101.723 176.049 100.352 176.049C99.3677 176.049 98.5679 176.576 98.2188 177.395H98.1362C97.8442 176.576 97.1587 176.049 96.2002 176.049C95.2544 176.049 94.5244 176.557 94.2261 177.395H94.1436V176.164H93.3501V183ZM107.359 183.114C109.27 183.114 110.47 181.762 110.47 179.579C110.47 177.395 109.27 176.049 107.359 176.049C105.449 176.049 104.255 177.395 104.255 179.579C104.255 181.762 105.449 183.114 107.359 183.114ZM107.359 182.359C105.95 182.359 105.112 181.312 105.112 179.579C105.112 177.846 105.95 176.798 107.359 176.798C108.769 176.798 109.606 177.846 109.606 179.579C109.606 181.312 108.769 182.359 107.359 182.359ZM112.266 183H113.098V178.804C113.098 177.687 113.866 176.798 114.856 176.798C115.802 176.798 116.43 177.439 116.43 178.423V183H117.262V178.665C117.262 177.604 117.966 176.798 119.02 176.798C120.048 176.798 120.601 177.395 120.601 178.512V183H121.432V178.322C121.432 176.875 120.639 176.049 119.268 176.049C118.284 176.049 117.484 176.576 117.135 177.395H117.052C116.76 176.576 116.075 176.049 115.116 176.049C114.17 176.049 113.44 176.557 113.142 177.395H113.06V176.164H112.266V183ZM126.218 176.786C127.456 176.786 128.275 177.706 128.294 179.115H124.035C124.111 177.706 124.974 176.786 126.218 176.786ZM128.211 181.312C127.919 181.984 127.221 182.372 126.25 182.372C124.93 182.372 124.073 181.381 124.028 179.839V179.801H129.164V179.433C129.164 177.344 128.046 176.049 126.225 176.049C124.365 176.049 123.171 177.439 123.171 179.585C123.171 181.743 124.352 183.114 126.231 183.114C127.666 183.114 128.719 182.422 129.056 181.312H128.211ZM130.966 183H131.798V178.938C131.798 177.649 132.623 176.798 133.829 176.798C135.016 176.798 135.613 177.465 135.613 178.766V183H136.444V178.557C136.444 176.963 135.575 176.049 134.051 176.049C132.959 176.049 132.204 176.551 131.842 177.395H131.76V176.164H130.966V183ZM138.964 174.386V176.164H137.847V176.868H138.964V181.299C138.964 182.543 139.485 183.038 140.792 183.038C140.938 183.038 141.23 183.019 141.376 182.994V182.283C141.237 182.295 141.015 182.302 140.881 182.302C140.113 182.302 139.796 181.946 139.796 181.108V176.868H141.376V176.164H139.796V174.386H138.964ZM143.598 185.215L144.525 181.838H143.585L142.97 185.215H143.598ZM151.387 179.363H151.311V173.44H150.479V183H151.311V180.347L152.085 179.629L154.84 183H155.906L152.713 179.096L155.767 176.164H154.726L151.387 179.363ZM157.385 183H158.217V176.164H157.385V183ZM157.798 174.64C158.141 174.64 158.42 174.361 158.42 174.018C158.42 173.682 158.141 173.402 157.798 173.402C157.461 173.402 157.182 173.682 157.182 174.018C157.182 174.361 157.461 174.64 157.798 174.64ZM160.394 183H161.226V178.938C161.226 177.649 162.051 176.798 163.257 176.798C164.444 176.798 165.041 177.465 165.041 178.766V183H165.872V178.557C165.872 176.963 165.002 176.049 163.479 176.049C162.387 176.049 161.632 176.551 161.27 177.395H161.188V176.164H160.394V183ZM170.512 183.114C171.56 183.114 172.442 182.549 172.848 181.635H172.924V183H173.724V173.44H172.893V177.497H172.816C172.429 176.602 171.553 176.049 170.512 176.049C168.779 176.049 167.618 177.465 167.618 179.585C167.618 181.705 168.767 183.114 170.512 183.114ZM170.69 176.798C172.029 176.798 172.905 177.903 172.905 179.579C172.905 181.267 172.036 182.359 170.69 182.359C169.338 182.359 168.475 181.28 168.475 179.579C168.475 177.884 169.338 176.798 170.69 176.798ZM175.997 183H176.828V173.44H175.997V183ZM179.526 185.418C180.643 185.418 181.125 184.974 181.735 183.33L184.395 176.164H183.506L181.443 182.092H181.367L179.297 176.164H178.396L180.96 183.044L180.821 183.47C180.484 184.377 180.142 184.695 179.513 184.695C179.412 184.695 179.234 184.688 179.139 184.669V185.393C179.247 185.406 179.424 185.418 179.526 185.418ZM189.847 174.386V176.164H188.73V176.868H189.847V181.299C189.847 182.543 190.368 183.038 191.675 183.038C191.821 183.038 192.113 183.019 192.259 182.994V182.283C192.12 182.295 191.897 182.302 191.764 182.302C190.996 182.302 190.679 181.946 190.679 181.108V176.868H192.259V176.164H190.679V174.386H189.847ZM194.011 183H194.843V178.734C194.843 177.655 195.63 176.855 196.69 176.855C196.938 176.855 197.28 176.894 197.433 176.938V176.106C197.249 176.062 197.02 176.049 196.792 176.049C195.884 176.049 195.116 176.544 194.887 177.287H194.805V176.164H194.011V183ZM199.343 185.418C200.46 185.418 200.943 184.974 201.552 183.33L204.212 176.164H203.323L201.26 182.092H201.184L199.115 176.164H198.213L200.778 183.044L200.638 183.47C200.302 184.377 199.959 184.695 199.331 184.695C199.229 184.695 199.051 184.688 198.956 184.669V185.393C199.064 185.406 199.242 185.418 199.343 185.418ZM211.277 182.378C210.356 182.378 209.69 181.883 209.69 181.096C209.69 180.315 210.249 179.883 211.41 179.801L213.435 179.655V180.455C213.435 181.54 212.502 182.378 211.277 182.378ZM211.137 183.114C212.14 183.114 212.978 182.638 213.397 181.826H213.473V183H214.273V178.309C214.273 176.887 213.365 176.049 211.759 176.049C210.325 176.049 209.265 176.767 209.106 177.852H209.95C210.115 177.192 210.794 176.792 211.734 176.792C212.845 176.792 213.435 177.338 213.435 178.315V178.976L211.296 179.115C209.715 179.223 208.833 179.915 208.833 181.108C208.833 182.333 209.798 183.114 211.137 183.114ZM219.084 182.188C217.72 182.188 216.895 181.115 216.895 179.496C216.895 177.871 217.72 176.798 219.084 176.798C220.437 176.798 221.306 177.884 221.306 179.509C221.306 181.127 220.456 182.188 219.084 182.188ZM219.154 185.564C220.951 185.564 222.125 184.587 222.125 183.102V176.164H221.325V177.516H221.249C220.875 176.627 219.967 176.049 218.919 176.049C217.167 176.049 216.038 177.446 216.038 179.496C216.038 181.546 217.161 182.93 218.919 182.93C219.967 182.93 220.805 182.403 221.211 181.502H221.293V183.038C221.293 184.143 220.475 184.834 219.154 184.834C218.113 184.834 217.402 184.428 217.25 183.8H216.368C216.545 184.866 217.586 185.564 219.154 185.564ZM226.308 182.378C225.388 182.378 224.721 181.883 224.721 181.096C224.721 180.315 225.28 179.883 226.441 179.801L228.466 179.655V180.455C228.466 181.54 227.533 182.378 226.308 182.378ZM226.168 183.114C227.171 183.114 228.009 182.638 228.428 181.826H228.504V183H229.304V178.309C229.304 176.887 228.396 176.049 226.791 176.049C225.356 176.049 224.296 176.767 224.137 177.852H224.981C225.146 177.192 225.826 176.792 226.765 176.792C227.876 176.792 228.466 177.338 228.466 178.315V178.976L226.327 179.115C224.747 179.223 223.864 179.915 223.864 181.108C223.864 182.333 224.829 183.114 226.168 183.114ZM231.45 183H232.281V176.164H231.45V183ZM231.862 174.64C232.205 174.64 232.484 174.361 232.484 174.018C232.484 173.682 232.205 173.402 231.862 173.402C231.526 173.402 231.247 173.682 231.247 174.018C231.247 174.361 231.526 174.64 231.862 174.64ZM234.458 183H235.29V178.938C235.29 177.649 236.115 176.798 237.321 176.798C238.508 176.798 239.105 177.465 239.105 178.766V183H239.937V178.557C239.937 176.963 239.067 176.049 237.543 176.049C236.452 176.049 235.696 176.551 235.334 177.395H235.252V176.164H234.458V183ZM242.837 183.051C243.212 183.051 243.504 182.752 243.504 182.384C243.504 182.01 243.212 181.711 242.837 181.711C242.463 181.711 242.165 182.01 242.165 182.384C242.165 182.752 242.463 183.051 242.837 183.051Z" fill="#999999"/>
</svg>
