<svg width="80" height="80" viewBox="0 0 80 80" fill="none" xmlns="http://www.w3.org/2000/svg">
<g filter="url(#filter0_dd)">
<path fill-rule="evenodd" clip-rule="evenodd" d="M16 12C16 9.79086 17.7909 8 20 8H60C62.2091 8 64 9.79086 64 12V52C64 54.2091 62.2091 56 60 56H20C17.7909 56 16 54.2091 16 52V12Z" fill="white"/>
<path d="M16.5 12C16.5 10.067 18.067 8.5 20 8.5H60C61.933 8.5 63.5 10.067 63.5 12V52C63.5 53.933 61.933 55.5 60 55.5H20C18.067 55.5 16.5 53.933 16.5 52V12Z" stroke="#E4E4E4" stroke-opacity="0.6"/>
<path d="M36.3499 23.4049L36.3541 23.4066C36.4416 23.0336 36.7599 22.7592 37.1581 22.7592H48.5004C48.5147 22.7592 48.5291 22.7533 48.5434 22.7541C48.3017 18.7306 44.9265 16.8657 41.9486 16.8657H30.6063C30.2072 16.8657 29.889 17.1478 29.8023 17.5199L29.7981 17.5182L24.84 40.282L24.851 40.2828C24.8392 40.3367 24.8181 40.3881 24.8181 40.4462C24.8181 40.9117 25.1945 41.2805 25.66 41.2805H32.4552L36.3499 23.4049Z" fill="#1565C0"/>
<path d="M48.5434 22.7539C48.588 23.4914 48.5392 24.2938 48.3506 25.1803C47.2721 30.2276 43.3732 32.8544 38.5549 32.8544C38.5549 32.8544 35.6334 32.8544 34.9237 32.8544C34.485 32.8544 34.2779 33.112 34.1828 33.309L32.7179 40.0856L32.4611 41.2887H32.456L31.3927 46.1685L31.4036 46.1693C31.3918 46.2232 31.3708 46.2746 31.3708 46.3327C31.3708 46.7982 31.7471 47.1746 32.2127 47.1746H38.3865L38.3974 47.1662C38.7948 47.1603 39.1105 46.8765 39.193 46.5027L39.2082 46.4901L40.7338 39.4045C40.7338 39.4045 40.8398 38.7285 41.5504 38.7285C42.261 38.7285 45.068 38.7285 45.068 38.7285C49.8863 38.7285 53.8247 36.1135 54.9041 31.0653C56.1181 25.374 52.0584 22.775 48.5434 22.7539Z" fill="#039BE5"/>
<path d="M37.1581 22.7589C36.759 22.7589 36.4408 23.0334 36.3541 23.4063L36.3499 23.4047L34.1819 33.3098C34.2771 33.1128 34.4842 32.8552 34.9228 32.8552C35.6334 32.8552 38.4883 32.8552 38.4883 32.8552C43.3066 32.8552 47.2712 30.2284 48.3497 25.1811C48.5391 24.2946 48.5871 23.4922 48.5425 22.7547C48.529 22.753 48.5139 22.7589 48.5004 22.7589H37.1581Z" fill="#283593"/>
</g>
<defs>
<filter id="filter0_dd" x="0" y="0" width="80" height="80" filterUnits="userSpaceOnUse" color-interpolation-filters="sRGB">
<feFlood flood-opacity="0" result="BackgroundImageFix"/>
<feColorMatrix in="SourceAlpha" type="matrix" values="0 0 0 0 0 0 0 0 0 0 0 0 0 0 0 0 0 0 127 0"/>
<feOffset dy="8"/>
<feGaussianBlur stdDeviation="8"/>
<feColorMatrix type="matrix" values="0 0 0 0 0.196487 0 0 0 0 0.196487 0 0 0 0 0.279476 0 0 0 0.06 0"/>
<feBlend mode="multiply" in2="BackgroundImageFix" result="effect1_dropShadow"/>
<feColorMatrix in="SourceAlpha" type="matrix" values="0 0 0 0 0 0 0 0 0 0 0 0 0 0 0 0 0 0 127 0"/>
<feOffset dy="8"/>
<feGaussianBlur stdDeviation="4"/>
<feColorMatrix type="matrix" values="0 0 0 0 0.196487 0 0 0 0 0.196487 0 0 0 0 0.279476 0 0 0 0.08 0"/>
<feBlend mode="multiply" in2="effect1_dropShadow" result="effect2_dropShadow"/>
<feBlend mode="normal" in="SourceGraphic" in2="effect2_dropShadow" result="shape"/>
</filter>
</defs>
</svg>
