<svg width="32" height="32" viewBox="0 0 32 32" fill="none" xmlns="http://www.w3.org/2000/svg">
<path d="M12.3499 7.4049L12.3541 7.40658C12.4416 7.03362 12.7599 6.75915 13.1581 6.75915H24.5004C24.5147 6.75915 24.5291 6.75326 24.5434 6.7541C24.3017 2.73057 20.9265 0.865723 17.9486 0.865723H6.6063C6.20723 0.865723 5.88899 1.14777 5.80227 1.51989L5.79806 1.51821L0.840005 24.282L0.85095 24.2828C0.839163 24.3367 0.818115 24.3881 0.818115 24.4462C0.818115 24.9117 1.19445 25.2805 1.66003 25.2805H8.45516L12.3499 7.4049Z" fill="#1565C0"/>
<path d="M24.5434 6.75391C24.588 7.49143 24.5392 8.29377 24.3506 9.18031C23.2721 14.2276 19.3732 16.8544 14.5549 16.8544C14.5549 16.8544 11.6334 16.8544 10.9237 16.8544C10.485 16.8544 10.2779 17.112 10.1828 17.309L8.71786 24.0856L8.46107 25.2887H8.45602L7.39268 30.1685L7.40362 30.1693C7.39184 30.2232 7.37079 30.2746 7.37079 30.3327C7.37079 30.7982 7.74713 31.1746 8.21271 31.1746H14.3865L14.3974 31.1662C14.7948 31.1603 15.1105 30.8765 15.193 30.5027L15.2082 30.4901L16.7338 23.4045C16.7338 23.4045 16.8398 22.7285 17.5504 22.7285C18.261 22.7285 21.068 22.7285 21.068 22.7285C25.8863 22.7285 29.8247 20.1135 30.9041 15.0653C32.1181 9.37395 28.0584 6.77495 24.5434 6.75391Z" fill="#039BE5"/>
<path d="M13.1581 6.75891C12.759 6.75891 12.4408 7.03337 12.3541 7.40634L12.3499 7.40466L10.1819 17.3098C10.2771 17.1128 10.4842 16.8552 10.9228 16.8552C11.6334 16.8552 14.4883 16.8552 14.4883 16.8552C19.3066 16.8552 23.2712 14.2284 24.3497 9.18111C24.5391 8.29457 24.5871 7.49222 24.5425 6.7547C24.529 6.75301 24.5139 6.75891 24.5004 6.75891H13.1581Z" fill="#283593"/>
</svg>
