<svg width="237" height="174" viewBox="0 0 237 174" fill="none" xmlns="http://www.w3.org/2000/svg">
<path d="M234.927 66.7626C245.582 102.651 213.44 143.555 177.924 162.047C142.409 180.54 103.342 176.779 65.8725 156.249C28.4035 135.719 -7.64489 98.4197 1.4116 64.4118C10.2905 30.404 64.2743 -0.156118 117.903 0.000600141C171.354 0.000600141 224.45 30.8741 234.927 66.7626Z" fill="#F8F8F8"/>
<path d="M171.106 35.446H142.703V22.904C142.703 21.409 143.916 20.1973 145.41 20.1973H168.399C169.894 20.1973 171.106 21.4093 171.106 22.904V35.446Z" fill="#6BBABD"/>
<path d="M168.399 20.1973H162.214C163.709 20.1973 164.921 21.409 164.921 22.904V35.446H171.106V22.904C171.106 21.409 169.894 20.1973 168.399 20.1973Z" fill="#135A59"/>
<path d="M156.905 98.5093C176.178 98.5093 191.803 82.8848 191.803 63.6111C191.803 44.3374 176.178 28.713 156.905 28.713C137.631 28.713 122.006 44.3374 122.006 63.6111C122.006 82.8848 137.631 98.5093 156.905 98.5093Z" fill="#F9F6F6"/>
<path d="M156.905 28.713C155.662 28.713 154.435 28.7792 153.226 28.9058C170.771 30.7438 184.446 45.5798 184.446 63.6111C184.446 81.6422 170.771 96.4784 153.226 98.3165C154.435 98.4431 155.662 98.5093 156.905 98.5093C176.178 98.5093 191.803 82.885 191.803 63.6111C191.803 44.3373 176.178 28.713 156.905 28.713Z" fill="#DDDAEC"/>
<path d="M187.887 137.844H64.2556C63.1587 137.844 62.2692 136.954 62.2692 135.857V79.9078C62.2692 78.1652 63.6819 76.7528 65.4242 76.7528H155.997C157.588 76.7528 159.107 77.422 160.18 78.5968L190.324 111.583C191.275 112.623 191.802 113.982 191.802 115.392V133.928C191.803 136.09 190.05 137.844 187.887 137.844Z" fill="#6BBABD"/>
<path d="M190.324 111.583L160.18 78.5968C159.107 77.422 157.588 76.7528 155.997 76.7528H149.548C151.139 76.7528 152.657 77.422 153.731 78.5968L183.875 111.583C184.826 112.623 185.353 113.982 185.353 115.392V133.928C185.353 136.09 183.6 137.844 181.437 137.844H187.887C190.049 137.844 191.802 136.09 191.802 133.928V115.392C191.803 113.982 191.275 112.623 190.324 111.583Z" fill="#61A2F9"/>
<path d="M160.18 78.5968C159.107 77.422 157.588 76.7528 155.997 76.7528H143.838V105.073C143.838 106.302 144.834 107.298 146.063 107.298H186.409L160.18 78.5968Z" fill="#E4F6FF"/>
<path d="M153.731 78.5968L179.959 107.298H186.409L160.18 78.5968C159.107 77.422 157.588 76.7528 155.997 76.7528H149.548C151.139 76.7528 152.657 77.422 153.731 78.5968Z" fill="#D3EFFB"/>
<path d="M166.542 153.362C174.652 153.362 181.227 146.787 181.227 138.677C181.227 130.567 174.652 123.992 166.542 123.992C158.431 123.992 151.856 130.567 151.856 138.677C151.856 146.787 158.431 153.362 166.542 153.362Z" fill="#26457D"/>
<path d="M166.542 123.992C165.71 123.992 164.896 124.065 164.102 124.198C171.05 125.36 176.347 131.399 176.347 138.677C176.347 145.956 171.05 151.994 164.102 153.156C164.896 153.289 165.71 153.362 166.542 153.362C174.652 153.362 181.227 146.787 181.227 138.677C181.227 130.567 174.652 123.992 166.542 123.992Z" fill="#21386B"/>
<path d="M166.541 143.557C169.236 143.557 171.421 141.372 171.421 138.677C171.421 135.982 169.236 133.797 166.541 133.797C163.847 133.797 161.662 135.982 161.662 138.677C161.662 141.372 163.847 143.557 166.541 143.557Z" fill="#F9F6F6"/>
<path d="M166.541 133.797C165.831 133.797 165.158 133.953 164.549 134.226C166.25 134.988 167.437 136.693 167.437 138.677C167.437 140.662 166.25 142.366 164.549 143.129C165.158 143.402 165.831 143.557 166.541 143.557C169.237 143.557 171.421 141.373 171.421 138.677C171.421 135.982 169.237 133.797 166.541 133.797Z" fill="#DDDAEC"/>
<path d="M93.3887 153.362C101.499 153.362 108.074 146.787 108.074 138.677C108.074 130.567 101.499 123.992 93.3887 123.992C85.2783 123.992 78.7036 130.567 78.7036 138.677C78.7036 146.787 85.2783 153.362 93.3887 153.362Z" fill="#26457D"/>
<path d="M93.3889 123.992C92.5572 123.992 91.743 124.065 90.9491 124.198C97.8974 125.36 103.194 131.399 103.194 138.677C103.194 145.956 97.8977 151.994 90.9491 153.156C91.743 153.289 92.5572 153.362 93.3889 153.362C101.499 153.362 108.074 146.787 108.074 138.677C108.074 130.567 101.499 123.992 93.3889 123.992Z" fill="#21386B"/>
<path d="M93.3887 143.557C96.0836 143.557 98.2683 141.372 98.2683 138.677C98.2683 135.982 96.0836 133.797 93.3887 133.797C90.6937 133.797 88.509 135.982 88.509 138.677C88.509 141.372 90.6937 143.557 93.3887 143.557Z" fill="#F9F6F6"/>
<path d="M93.389 133.797C92.6785 133.797 92.0056 133.953 91.3965 134.226C93.0975 134.988 94.284 136.693 94.284 138.677C94.284 140.662 93.0972 142.366 91.3965 143.129C92.0053 143.402 92.6785 143.557 93.389 143.557C96.084 143.557 98.2687 141.373 98.2687 138.677C98.2687 135.982 96.084 133.797 93.389 133.797Z" fill="#DDDAEC"/>
<path d="M88.9068 112.201L87.1965 110.443L97.6177 100.3L87.1965 90.1561L88.9068 88.3989C91.2723 85.9687 95.1597 85.9163 97.5898 88.2817L106.723 97.1713C107.196 97.6321 107.582 98.1832 107.808 98.804C108.409 100.454 107.961 102.224 106.774 103.379L97.5898 112.318C95.1599 114.683 91.2723 114.631 88.9068 112.201Z" fill="#F9F6F6"/>
<path d="M156.905 41.9027C158.118 41.9027 159.102 40.9192 159.102 39.7055V36.7517C159.102 35.538 158.118 34.5545 156.905 34.5545C155.691 34.5545 154.707 35.538 154.707 36.7517V39.7055C154.707 40.9189 155.691 41.9027 156.905 41.9027Z" fill="black"/>
<path d="M180.811 61.4139C179.597 61.4139 178.613 62.3974 178.613 63.6111C178.613 64.8249 179.597 65.8084 180.811 65.8084H183.764C184.978 65.8084 185.961 64.8249 185.961 63.6111C185.961 62.3974 184.978 61.4139 183.764 61.4139H180.811Z" fill="black"/>
<path d="M130.045 61.4139C128.831 61.4139 127.848 62.3974 127.848 63.6111C127.848 64.8249 128.831 65.8084 130.045 65.8084H132.999C134.213 65.8084 135.196 64.8249 135.196 63.6111C135.196 62.3974 134.213 61.4139 132.999 61.4139H130.045Z" fill="black"/>
<path d="M166.542 131.6C162.639 131.6 159.464 134.775 159.464 138.677C159.464 142.579 162.639 145.754 166.542 145.754C170.444 145.754 173.618 142.579 173.618 138.677C173.618 134.775 170.444 131.6 166.542 131.6ZM166.542 141.359C165.062 141.359 163.859 140.156 163.859 138.677C163.859 137.198 165.062 135.995 166.542 135.995C168.021 135.995 169.224 137.198 169.224 138.677C169.224 140.156 168.021 141.359 166.542 141.359Z" fill="black"/>
<path d="M86.3117 138.677C86.3117 142.579 89.4866 145.754 93.389 145.754C97.2913 145.754 100.466 142.579 100.466 138.677C100.466 134.775 97.2913 131.6 93.389 131.6C89.4866 131.6 86.3117 134.775 86.3117 138.677ZM96.0714 138.677C96.0714 140.156 94.8682 141.359 93.389 141.359C91.9098 141.359 90.7062 140.156 90.7062 138.677C90.7062 137.198 91.9098 135.995 93.389 135.995C94.8682 135.995 96.0714 137.198 96.0714 138.677Z" fill="black"/>
<path d="M108.307 104.953C110.788 102.538 111.073 98.3388 108.256 95.5966L99.1227 86.7065C95.8279 83.5008 90.539 83.5717 87.3324 86.8658L85.6221 88.6231C84.7757 89.4929 84.7945 90.8839 85.664 91.73L94.4677 100.299L85.664 108.868C85.2465 109.275 85.0074 109.83 84.9995 110.413C84.9916 110.996 85.2157 111.558 85.6221 111.975L87.3324 113.733C90.5495 117.038 95.8271 117.1 99.1227 113.892L108.307 104.953ZM90.4816 110.668L90.3037 110.485L99.1505 101.874C99.5753 101.461 99.8153 100.893 99.8153 100.3C99.8153 99.7067 99.5756 99.1386 99.1505 98.7252L90.3037 90.1137L90.4816 89.9312C91.9986 88.3729 94.4996 88.3392 96.0576 89.8556L105.191 98.7457C106.165 99.6944 106.035 101.031 105.242 101.804L96.0576 110.743C94.507 112.252 92.0109 112.239 90.4816 110.668Z" fill="black"/>
<path d="M154.707 63.6111C154.707 64.8249 155.691 65.8084 156.905 65.8084H164.377C165.591 65.8084 166.574 64.8249 166.574 63.6111C166.574 62.3974 165.591 61.4139 164.377 61.4139H159.102V47.7305C159.102 46.5167 158.118 45.5332 156.905 45.5332C155.691 45.5332 154.707 46.5167 154.707 47.7305V63.6111Z" fill="black"/>
<path d="M81.5355 44.8324H119.37C120.584 44.8324 121.567 43.8489 121.567 42.6352C121.567 41.4214 120.584 40.4379 119.37 40.4379H81.5355C80.322 40.4379 79.3382 41.4214 79.3382 42.6352C79.3382 43.8489 80.322 44.8324 81.5355 44.8324Z" fill="black"/>
<path d="M72.3644 56.1841H111.637C112.851 56.1841 113.835 55.2006 113.835 53.9868C113.835 52.773 112.851 51.7896 111.637 51.7896H72.3644C71.1509 51.7896 70.1671 52.773 70.1671 53.9868C70.1671 55.2006 71.1509 56.1841 72.3644 56.1841Z" fill="black"/>
<path d="M94.8324 61.9128C93.6189 61.9128 92.6351 62.8963 92.6351 64.1101C92.6351 65.3238 93.6189 66.3073 94.8324 66.3073H114.375C115.588 66.3073 116.572 65.3238 116.572 64.1101C116.572 62.8963 115.588 61.9128 114.375 61.9128H94.8324Z" fill="black"/>
<path d="M76.3071 61.9128C75.0937 61.9128 74.1099 62.8963 74.1099 64.1101C74.1099 65.3238 75.0937 66.3073 76.3071 66.3073H86.0606C87.2741 66.3073 88.2579 65.3238 88.2579 64.1101C88.2579 62.8963 87.2741 61.9128 86.0606 61.9128H76.3071Z" fill="black"/>
<path d="M46.1973 96.5666H54.2334C55.4469 96.5666 56.4307 95.5831 56.4307 94.3693C56.4307 93.1556 55.4469 92.1721 54.2334 92.1721H46.1973C44.9838 92.1721 44 93.1556 44 94.3693C44 95.5831 44.9838 96.5666 46.1973 96.5666Z" fill="black"/>
<path d="M52.0566 115.921H46.1973C44.9838 115.921 44 116.905 44 118.119C44 119.332 44.9838 120.316 46.1973 120.316H52.0566C53.2701 120.316 54.2539 119.332 54.2539 118.119C54.2539 116.905 53.2701 115.921 52.0566 115.921Z" fill="black"/>
<path d="M77.9062 97.3146H70.0698C68.8563 97.3146 67.8726 98.2981 67.8726 99.5118C67.8726 100.726 68.8563 101.709 70.0698 101.709H77.9062C79.1196 101.709 80.1034 100.726 80.1034 99.5118C80.1034 98.2981 79.1196 97.3146 77.9062 97.3146Z" fill="black"/>
<path d="M177.596 94.398C187.777 87.5394 194 75.9812 194 63.6108C194 57.7315 192.663 52.1057 190.024 46.8905C189.477 45.8077 188.155 45.3738 187.072 45.9214C185.989 46.4689 185.555 47.7911 186.103 48.8736C188.427 53.4686 189.605 58.4271 189.605 63.6108C189.605 74.736 183.894 85.1156 174.594 91.1127L161.802 77.1144C160.316 75.4878 158.2 74.5553 155.997 74.5553H126.083C124.836 71.049 124.204 67.3743 124.204 63.6108C124.204 45.5795 138.873 30.9103 156.905 30.9103C166.258 30.9103 175.183 34.931 181.392 41.9414C182.196 42.8496 183.584 42.9346 184.493 42.1295C185.402 41.325 185.486 39.9363 184.682 39.0278C181.454 35.3827 177.576 32.453 173.303 30.3457V22.904C173.303 20.1999 171.103 18 168.399 18H145.41C142.706 18 140.506 20.1999 140.506 22.904V30.3437C128.255 36.4075 119.809 49.0403 119.809 63.6108C119.809 67.3562 120.363 71.0241 121.455 74.5553H65.4242C62.6214 74.5553 60.3189 76.7221 60.0942 79.4684H52.0566C50.8432 79.4684 49.8594 80.4519 49.8594 81.6656C49.8594 82.8794 50.8432 83.8629 52.0566 83.8629H60.072V105.101H46.1973C44.9838 105.101 44 106.084 44 107.298C44 108.512 44.9838 109.495 46.1973 109.495H60.072V115.922C58.8682 115.933 57.8952 116.912 57.8952 118.118C57.8952 119.325 58.8679 120.303 60.072 120.314V135.857C60.072 138.164 61.9487 140.04 64.2553 140.04H70.1671V141.57H63.3116C62.0981 141.57 61.1144 142.553 61.1144 143.767C61.1144 144.981 62.0981 145.964 63.3116 145.964H72.3644C73.5778 145.964 74.5616 144.981 74.5616 143.767V140.04H76.5664C77.2637 148.713 84.5396 155.559 93.389 155.559C96.3093 155.559 99.1921 154.797 101.725 153.355C102.78 152.755 103.148 151.414 102.548 150.359C101.948 149.304 100.607 148.936 99.5519 149.536C97.6798 150.601 95.5484 151.164 93.389 151.164C86.5033 151.164 80.9012 145.562 80.9012 138.676C80.9012 131.791 86.5033 126.189 93.389 126.189C100.275 126.189 105.877 131.791 105.877 138.676C105.877 140.554 105.47 142.359 104.667 144.043C104.145 145.138 104.61 146.45 105.705 146.972C106.8 147.494 108.112 147.029 108.634 145.934C109.524 144.067 110.048 142.089 110.211 140.04H149.719C150.416 148.713 157.692 155.559 166.542 155.559C175.391 155.559 182.667 148.713 183.364 140.04H187.887C191.258 140.04 194 137.298 194 133.927V115.391C194 113.428 193.271 111.549 191.946 110.1L177.596 94.398ZM144.901 22.904C144.901 22.623 145.129 22.3945 145.41 22.3945H168.399C168.68 22.3945 168.909 22.623 168.909 22.904V28.519C165.082 27.2086 161.031 26.516 156.905 26.516C152.705 26.516 148.667 27.2186 144.9 28.5103V22.904H144.901ZM158.558 80.0792L181.424 105.101H165.034C163.82 105.101 162.836 106.084 162.836 107.298C162.836 108.512 163.82 109.495 165.034 109.495H185.44L188.703 113.065C190.033 114.521 189.474 116.1 189.605 117.776H187.912C186.698 117.776 185.714 118.76 185.714 119.973C185.714 121.187 186.698 122.171 187.912 122.171H189.605V125.422H176.978C174.104 123.154 170.479 121.795 166.542 121.795C162.604 121.795 158.98 123.154 156.105 125.422H132.165V78.9501H141.642V105.073C141.642 107.512 143.625 109.496 146.064 109.496H156.249C157.463 109.496 158.446 108.512 158.446 107.298C158.446 106.085 157.463 105.101 156.249 105.101H146.064C146.048 105.101 146.036 105.088 146.036 105.073V78.9501H155.998C156.969 78.9501 157.902 79.3617 158.558 80.0792ZM149.937 135.646H132.164V129.816H152.179C151.092 131.573 150.32 133.542 149.937 135.646ZM107.751 129.816H127.77V135.646H109.993C109.61 133.542 108.838 131.573 107.751 129.816ZM64.4665 129.816H79.0265C77.939 131.573 77.1673 133.542 76.7841 135.646H64.4665V129.816ZM82.9522 125.422H64.4665V120.316H73.988C75.2015 120.316 76.1853 119.332 76.1853 118.119C76.1853 116.905 75.2015 115.921 73.988 115.921H64.4665V109.495H73.988C75.2015 109.495 76.1853 108.512 76.1853 107.298C76.1853 106.084 75.2015 105.101 73.988 105.101H64.4665V79.9078C64.4665 79.3796 64.896 78.9498 65.4242 78.9498H127.77V125.422H103.825C100.951 123.153 97.3265 121.794 93.389 121.794C89.4515 121.794 85.8271 123.154 82.9522 125.422ZM166.542 151.165C159.656 151.165 154.054 145.563 154.054 138.677C154.054 131.791 159.656 126.189 166.542 126.189C173.427 126.189 179.029 131.791 179.029 138.677C179.029 145.563 173.427 151.165 166.542 151.165ZM187.887 135.646H183.146C182.763 133.542 181.991 131.573 180.903 129.816H189.605V133.928C189.605 134.875 188.835 135.646 187.887 135.646Z" fill="#181E26"/>
</svg>
