<svg width="20" height="20" viewBox="0 0 20 20" fill="none" xmlns="http://www.w3.org/2000/svg">
<circle cx="10" cy="10" r="10" fill="#135A59" fill-opacity="0.1"/>
<path d="M13.4286 10.8571C12.578 10.8571 11.8284 11.277 11.36 11.9152L9.01986 10.7449C9.09232 10.5075 9.14286 10.2607 9.14286 9.99999C9.14286 9.73925 9.09232 9.49243 9.01986 9.25511L11.36 8.08475C11.8284 8.72294 12.578 9.14284 13.4286 9.14284C14.8465 9.14284 16 7.98937 16 6.57141C16 5.15344 14.8466 4 13.4286 4C12.0106 4 10.8571 5.15347 10.8571 6.57143C10.8571 6.83216 10.9077 7.07894 10.9802 7.31626L8.63993 8.48667C8.17159 7.84847 7.42201 7.42858 6.57141 7.42858C5.15344 7.42858 4 8.58203 4 10C4 11.418 5.15344 12.5714 6.57143 12.5714C7.42204 12.5714 8.17162 12.1516 8.63996 11.5134L10.9801 12.6838C10.9077 12.9211 10.8571 13.1678 10.8571 13.4286C10.8571 14.8466 12.0106 16 13.4286 16C14.8466 16 16 14.8466 16 13.4286C16 12.0106 14.8465 10.8571 13.4286 10.8571ZM13.4286 4.85715C14.374 4.85715 15.1428 5.62641 15.1428 6.57143C15.1428 7.51647 14.374 8.28571 13.4286 8.28571C12.4831 8.28571 11.7143 7.51645 11.7143 6.57143C11.7143 5.62641 12.4831 4.85715 13.4286 4.85715ZM6.57143 11.7143C5.62597 11.7143 4.85715 10.945 4.85715 10C4.85715 9.05497 5.62599 8.28573 6.57143 8.28573C7.5169 8.28573 8.28571 9.055 8.28571 10C8.28571 10.945 7.5169 11.7143 6.57143 11.7143ZM13.4286 15.1428C12.4831 15.1428 11.7143 14.3736 11.7143 13.4286C11.7143 12.4836 12.4831 11.7143 13.4286 11.7143C14.374 11.7143 15.1428 12.4836 15.1428 13.4286C15.1428 14.3736 14.374 15.1428 13.4286 15.1428Z" fill="#135A59"/>
</svg>
