<svg width="237" height="174" viewBox="0 0 237 174" fill="none" xmlns="http://www.w3.org/2000/svg">
<path d="M234.927 66.7626C245.582 102.651 213.44 143.555 177.924 162.047C142.409 180.54 103.342 176.779 65.8725 156.249C28.4035 135.719 -7.64489 98.4197 1.4116 64.4118C10.2905 30.404 64.2743 -0.156118 117.903 0.000600141C171.354 0.000600141 224.45 30.8741 234.927 66.7626Z" fill="#F8F8F8"/>
<path d="M111.742 159.581H58.5161C51.8363 159.581 46.4194 154.164 46.4194 147.484V26.5161C46.4194 19.8363 51.8363 14.4193 58.5161 14.4193H111.742C118.422 14.4193 123.839 19.8363 123.839 26.5161V147.484C123.839 154.164 118.422 159.581 111.742 159.581Z" fill="#8892A0"/>
<path d="M85.1291 149.903C87.8014 149.903 89.9678 147.737 89.9678 145.065C89.9678 142.392 87.8014 140.226 85.1291 140.226C82.4567 140.226 80.2903 142.392 80.2903 145.065C80.2903 147.737 82.4567 149.903 85.1291 149.903Z" fill="white"/>
<path d="M46.4194 33.7742H123.839V130.548H46.4194V33.7742Z" fill="#A2DBF7"/>
<path d="M46.4194 117.602C49.1799 118.159 52.0057 118.452 54.8871 118.452C84.95 118.452 109.323 87.0387 109.323 48.2903C109.323 43.3137 108.914 38.4581 108.149 33.7742H46.4194V117.602Z" fill="#C7E9FA"/>
<path d="M94.8065 48.2903H152.871V101.516H94.8065V48.2903Z" fill="#135A59"/>
<path d="M94.8065 48.2903V86.6637C96.396 86.8669 98.0048 87 99.6452 87C120.471 87 137.636 70.1419 140.356 48.2903H94.8065Z" fill="#135A59"/>
<path d="M116.581 48.2903V72.4839L123.839 65.2258L131.097 72.4839V48.2903H116.581Z" fill="#135A59"/>
<path d="M162.548 72.4839C174.574 72.4839 184.323 62.7352 184.323 50.7097C184.323 38.6841 174.574 28.9355 162.548 28.9355C150.523 28.9355 140.774 38.6841 140.774 50.7097C140.774 62.7352 150.523 72.4839 162.548 72.4839Z" fill="#6BBABD"/>
<path d="M140.774 50.7097C140.774 55.1855 142.129 59.3444 144.444 62.804C161.128 62.7823 174.645 49.7952 174.645 33.7742C174.645 33.3677 174.599 32.971 174.582 32.5694C171.135 30.2758 167 28.9355 162.548 28.9355C150.522 28.9355 140.774 38.6831 140.774 50.7097Z" fill="#6BBABD"/>
<path d="M68.1936 87L58.9081 74.0008C57.0791 71.4411 56.0968 68.3734 56.0968 65.2258C56.0968 62.1266 57.3283 59.1556 59.5178 56.9661L59.9339 56.55C62.1234 54.3605 65.0944 53.129 68.1936 53.129C71.2928 53.129 74.2637 54.3605 76.4533 56.55L76.8694 56.9661C79.0589 59.1556 80.2904 62.1266 80.2904 65.2258C80.2904 68.3734 79.3081 71.4411 77.4791 74.0008L68.1936 87Z" fill="#41A393"/>
<path d="M68.1936 53.129C65.0944 53.129 62.1234 54.3605 59.9339 56.55L59.5178 56.9661C57.3283 59.1556 56.0968 62.1266 56.0968 65.2258C56.0968 68.3734 57.0791 71.4411 58.9081 74.0008L61.071 77.0274C68.8081 75.4089 74.8178 66.5927 75.3887 55.6766C73.3395 54.0629 70.8283 53.129 68.1936 53.129Z" fill="#41A393"/>
<path d="M179.484 154.742L170.198 141.743C168.369 139.183 167.387 136.115 167.387 132.968C167.387 129.869 168.619 126.898 170.808 124.708L171.224 124.292C173.414 122.102 176.385 120.871 179.484 120.871C182.583 120.871 185.554 122.102 187.744 124.292L188.16 124.708C190.349 126.898 191.581 129.869 191.581 132.968C191.581 136.115 190.598 139.183 188.769 141.743L179.484 154.742Z" fill="#135A59"/>
<path d="M179.484 120.871C176.385 120.871 173.414 122.102 171.224 124.292L170.808 124.708C168.619 126.898 167.387 129.869 167.387 132.968C167.387 136.115 168.369 139.183 170.198 141.743L172.361 144.769C180.098 143.151 186.108 134.335 186.679 123.419C184.63 121.805 182.119 120.871 179.484 120.871Z" fill="#135A59"/>
<path d="M111.742 162H58.5161C50.5105 162 44 155.49 44 147.484V26.5161C44 18.5105 50.5105 12 58.5161 12H111.742C119.748 12 126.258 18.5105 126.258 26.5161V48.2903H121.419V26.5161C121.419 21.179 117.079 16.8387 111.742 16.8387H58.5161C53.179 16.8387 48.8387 21.179 48.8387 26.5161V147.484C48.8387 152.821 53.179 157.161 58.5161 157.161H111.742C117.079 157.161 121.419 152.821 121.419 147.484V101.516H126.258V147.484C126.258 155.49 119.748 162 111.742 162Z" fill="black"/>
<path d="M46.4194 31.3548H123.839V36.1935H46.4194V31.3548Z" fill="black"/>
<path d="M77.871 21.6774H92.3871V26.5161H77.871V21.6774Z" fill="black"/>
<path d="M46.4194 128.129H123.839V132.968H46.4194V128.129Z" fill="black"/>
<path d="M85.129 152.323C81.1274 152.323 77.871 149.066 77.871 145.065C77.871 141.063 81.1274 137.806 85.129 137.806C89.1306 137.806 92.3871 141.063 92.3871 145.065C92.3871 149.066 89.1306 152.323 85.129 152.323ZM85.129 142.645C83.796 142.645 82.7097 143.729 82.7097 145.065C82.7097 146.4 83.796 147.484 85.129 147.484C86.4621 147.484 87.5484 146.4 87.5484 145.065C87.5484 143.729 86.4621 142.645 85.129 142.645Z" fill="black"/>
<path d="M152.871 103.935H94.8064C93.471 103.935 92.3871 102.854 92.3871 101.516V48.2903C92.3871 46.9524 93.471 45.871 94.8064 45.871H140.774V50.7097H97.2258V99.0968H150.452V70.0645H155.29V101.516C155.29 102.854 154.206 103.935 152.871 103.935Z" fill="black"/>
<path d="M131.097 74.9032C130.468 74.9032 129.848 74.6564 129.386 74.1943L123.839 68.6468L118.291 74.1943C117.597 74.8863 116.559 75.0968 115.654 74.7193C114.752 74.3468 114.161 73.4613 114.161 72.4839V48.2903H119V66.6435L122.128 63.5153C123.074 62.5693 124.603 62.5693 125.549 63.5153L128.677 66.6435V48.2903H133.516V72.4839C133.516 73.4613 132.926 74.3468 132.023 74.7193C131.723 74.8452 131.409 74.9032 131.097 74.9032Z" fill="black"/>
<path d="M94.8065 89.4194H152.871V94.2581H94.8065V89.4194Z" fill="black"/>
<path d="M68.1936 89.4194C67.4121 89.4194 66.679 89.042 66.2266 88.4057L56.9436 75.4089C54.8048 72.4234 53.6774 68.9008 53.6774 65.2258C53.6774 61.5145 55.1823 57.8807 57.8073 55.2557L58.2234 54.8395C60.8847 52.1758 64.4266 50.7097 68.1936 50.7097C71.9605 50.7097 75.5024 52.1758 78.1637 54.8395L78.5798 55.2557C81.2048 57.8807 82.7097 61.5145 82.7097 65.2258C82.7097 68.9008 81.5823 72.4234 79.446 75.4089L70.1629 88.4057C69.7081 89.042 68.975 89.4194 68.1936 89.4194ZM68.1936 55.5484C65.721 55.5484 63.3936 56.5113 61.6444 58.2605L61.2282 58.6766C59.5057 60.4016 58.5161 62.7871 58.5161 65.2258C58.5161 67.8871 59.3315 70.4323 60.8774 72.5976L68.1936 82.8363L75.5073 72.5976C77.0557 70.4323 77.871 67.8871 77.871 65.2258C77.871 62.7871 76.8815 60.4016 75.1589 58.6766L74.7428 58.2605C72.9936 56.5113 70.6661 55.5484 68.1936 55.5484Z" fill="black"/>
<path d="M179.484 157.161C178.702 157.161 177.969 156.784 177.517 156.148L168.234 143.151C166.095 140.165 164.968 136.643 164.968 132.968C164.968 129.256 166.473 125.623 169.098 122.998L169.514 122.581C172.175 119.918 175.717 118.452 179.484 118.452C183.251 118.452 186.793 119.918 189.454 122.581L189.87 122.998C192.495 125.623 194 129.256 194 132.968C194 136.643 192.873 140.165 190.736 143.151L181.453 156.148C180.998 156.784 180.265 157.161 179.484 157.161ZM179.484 123.29C177.011 123.29 174.684 124.253 172.935 126.002L172.519 126.419C170.796 128.144 169.806 130.529 169.806 132.968C169.806 135.629 170.622 138.174 172.168 140.34L179.484 150.578L186.798 140.34C188.346 138.174 189.161 135.629 189.161 132.968C189.161 130.529 188.172 128.144 186.449 126.419L186.033 126.002C184.284 124.253 181.956 123.29 179.484 123.29Z" fill="black"/>
<path d="M65.7742 94.2581H70.6129V99.0968H65.7742V94.2581Z" fill="black"/>
<path d="M65.7742 103.935H70.6129V108.774H65.7742V103.935Z" fill="black"/>
<path d="M65.7742 113.613H70.6129V118.452H65.7742V113.613Z" fill="black"/>
<path d="M75.4516 113.613H80.2903V118.452H75.4516V113.613Z" fill="black"/>
<path d="M85.129 113.613H89.9677V118.452H85.129V113.613Z" fill="black"/>
<path d="M94.8065 113.613H99.6452V118.452H94.8065V113.613Z" fill="black"/>
<path d="M104.484 113.613H109.323V118.452H104.484V113.613Z" fill="black"/>
<path d="M114.161 113.613H119V118.452H114.161V113.613Z" fill="black"/>
<path d="M128.677 113.613H133.516V118.452H128.677V113.613Z" fill="black"/>
<path d="M138.355 113.613H143.194V118.452H138.355V113.613Z" fill="black"/>
<path d="M138.355 123.29H143.194V128.129H138.355V123.29Z" fill="black"/>
<path d="M138.355 132.968H143.194V137.806H138.355V132.968Z" fill="black"/>
<path d="M138.355 142.645H143.194V147.484H138.355V142.645Z" fill="black"/>
<path d="M138.355 152.323H143.194V157.161H138.355V152.323Z" fill="black"/>
<path d="M148.032 152.323H152.871V157.161H148.032V152.323Z" fill="black"/>
<path d="M157.71 152.323H162.548V157.161H157.71V152.323Z" fill="black"/>
<path d="M167.387 152.323H172.226V157.161H167.387V152.323Z" fill="black"/>
<path d="M162.548 74.9032C149.208 74.9032 138.355 64.05 138.355 50.7097C138.355 37.3694 149.208 26.5161 162.548 26.5161C175.889 26.5161 186.742 37.3694 186.742 50.7097C186.742 64.05 175.889 74.9032 162.548 74.9032ZM162.548 31.3549C151.877 31.3549 143.194 40.0379 143.194 50.7097C143.194 61.3815 151.877 70.0645 162.548 70.0645C173.22 70.0645 181.903 61.3815 181.903 50.7097C181.903 40.0379 173.22 31.3549 162.548 31.3549Z" fill="black"/>
<path d="M157.71 60.3871C157.09 60.3871 156.471 60.15 155.999 59.6782L151.161 54.8395L154.581 51.4185L157.71 54.5468L170.515 41.7411L173.936 45.1621L159.42 59.6782C158.948 60.15 158.329 60.3871 157.71 60.3871Z" fill="black"/>
</svg>
