<svg width="42" height="14" viewBox="0 0 42 14" fill="none" xmlns="http://www.w3.org/2000/svg">
<path d="M12.0549 0.462402L8.93312 9.77297C8.93312 9.77297 8.1402 5.83453 8.06174 5.33999C6.28451 1.28504 3.66205 1.51091 3.66205 1.51091L6.75289 13.539V13.5367H10.5106L15.7068 0.462402H12.0549Z" fill="#1565C0"/>
<path d="M15.0311 13.5386H18.4441L20.5079 0.461914H17.0521L15.0311 13.5386Z" fill="#1565C0"/>
<path d="M39.186 0.461914H35.5947L29.9955 13.5386H33.3859L34.0849 11.671H38.3598L38.7235 13.5386H41.8298L39.186 0.461914ZM35.0312 9.17333L36.8893 4.23155L37.8617 9.17333H35.0312Z" fill="#1565C0"/>
<path d="M25.3496 4.27337C25.3496 3.55297 25.9416 3.01683 27.6392 3.01683C28.7424 3.01683 30.0061 3.81807 30.0061 3.81807L30.56 1.07316C30.56 1.07316 28.9457 0.460938 27.361 0.460938C23.7721 0.460938 21.9211 2.17754 21.9211 4.35064C21.9211 8.28077 26.6513 7.74225 26.6513 9.76081C26.6513 10.1067 26.3767 10.9068 24.4069 10.9068C22.4311 10.9068 21.127 10.1828 21.127 10.1828L20.5386 12.8172C20.5386 12.8172 21.8023 13.5376 24.244 13.5376C26.6917 13.5376 30.0869 11.7068 30.0869 9.07726C30.0869 5.9139 25.3496 5.68565 25.3496 4.27337Z" fill="#1565C0"/>
<path d="M8.51992 7.52972L7.37156 1.88537C7.37156 1.88537 6.85206 0.662109 5.5016 0.662109C4.15114 0.662109 0.223388 0.662109 0.223388 0.662109C0.223388 0.662109 6.9531 2.64976 8.51992 7.52972Z" fill="#FFC107"/>
</svg>
