<svg width="237" height="174" viewBox="0 0 237 174" fill="none" xmlns="http://www.w3.org/2000/svg">
<path d="M234.927 66.7626C245.582 102.651 213.44 143.555 177.924 162.047C142.409 180.54 103.342 176.779 65.8725 156.249C28.4035 135.719 -7.64489 98.4197 1.4116 64.4118C10.2905 30.404 64.2743 -0.156118 117.903 0.000600141C171.354 0.000600141 224.45 30.8741 234.927 66.7626Z" fill="#F8F8F8"/>
<path fill-rule="evenodd" clip-rule="evenodd" d="M166.014 2.19727H73.7285L64.9395 10.9863H174.803L166.014 2.19727ZM174.803 37.3532H64.9395V108.252H73.7285L78.123 112.646V117.041L73.7285 121.436L78.123 125.83V130.225L73.7285 134.619L78.123 139.014V143.408L73.7285 147.803H166.014L174.803 139.014V37.3532ZM119.871 55.9567C140.096 55.9567 156.492 72.3524 156.492 92.5778C156.492 112.803 140.096 129.199 119.871 129.199C99.6457 129.199 83.25 112.803 83.25 92.5778C83.25 72.3527 99.6457 55.9567 119.871 55.9567Z" fill="#E0DFDE"/>
<path d="M120.164 120.703C135.697 120.703 148.289 108.111 148.289 92.5781C148.289 77.0451 135.697 64.4531 120.164 64.4531C104.631 64.4531 92.0391 77.0451 92.0391 92.5781C92.0391 108.111 104.631 120.703 120.164 120.703Z" fill="white"/>
<path d="M164.709 27.2885C166.425 25.5726 166.425 22.7906 164.709 21.0747C162.993 19.3588 160.211 19.3588 158.496 21.0747C156.78 22.7906 156.78 25.5726 158.496 27.2885C160.211 29.0045 162.993 29.0045 164.709 27.2885Z" fill="#C4E5F9"/>
<path d="M144.73 28.5264C147.125 28.1381 148.753 25.8814 148.364 23.4859C147.976 21.0904 145.719 19.4633 143.324 19.8516C140.928 20.2399 139.301 22.4967 139.689 24.8921C140.078 27.2876 142.334 28.9148 144.73 28.5264Z" fill="#F492A7"/>
<path d="M127.154 28.5235C129.549 28.1352 131.176 25.8785 130.788 23.483C130.4 21.0875 128.143 19.4604 125.747 19.8487C123.352 20.237 121.725 22.4938 122.113 24.8893C122.501 27.2847 124.758 28.9119 127.154 28.5235Z" fill="#E7CDA2"/>
<path fill-rule="evenodd" clip-rule="evenodd" d="M73.7282 19.7754H100.095V28.5645H73.7282V19.7754Z" fill="#C4E5F9"/>
<path fill-rule="evenodd" clip-rule="evenodd" d="M122.069 24.1696C122.069 21.7427 124.037 19.7751 126.463 19.7751C128.89 19.7751 130.858 21.7427 130.858 24.1696C130.858 26.5966 128.89 28.5642 126.463 28.5642C124.037 28.5645 122.069 26.5969 122.069 24.1696ZM174.803 10.9863H64.9395V37.3532H174.803V10.9863ZM139.647 24.1696C139.647 21.7427 141.614 19.7751 144.041 19.7751C146.468 19.7751 148.436 21.7427 148.436 24.1696C148.436 26.5966 146.468 28.5642 144.041 28.5642C141.614 28.5645 139.647 26.5969 139.647 24.1696ZM157.225 24.1696C157.225 21.7427 159.192 19.7751 161.619 19.7751C164.046 19.7751 166.014 21.7427 166.014 24.1696C166.014 26.5966 164.046 28.5642 161.619 28.5642C159.192 28.5645 157.225 26.5969 157.225 24.1696ZM100.095 19.7754V28.5645H73.7282V19.7754H100.095Z" fill="#6BBABD"/>
<path fill-rule="evenodd" clip-rule="evenodd" d="M156.492 92.5779C156.492 72.3525 140.096 55.9568 119.871 55.9568C99.6457 55.9568 83.25 72.3525 83.25 92.5779C83.25 112.803 99.6457 129.199 119.871 129.199C140.096 129.199 156.492 112.803 156.492 92.5779ZM119.871 64.7315C135.299 64.7315 147.718 77.248 147.718 92.5781C147.718 94.0735 147.6 95.5412 147.373 96.9727H124.266L115.477 88.1836H92.3692C94.4763 74.8922 105.987 64.7315 119.871 64.7315Z" fill="#BFBEC1"/>
<path fill-rule="evenodd" clip-rule="evenodd" d="M147.371 96.9723C145.264 110.263 133.755 120.424 119.871 120.424C104.492 120.424 92.0244 107.957 92.0244 92.5778C92.0244 91.0825 92.1437 89.615 92.3707 88.1833H115.477L124.266 96.9723H147.371Z" fill="#C4E5F9"/>
<path fill-rule="evenodd" clip-rule="evenodd" d="M73.7285 108.252H33.5918L29.1973 112.646V117.041L33.5918 121.436H73.7285L78.1227 117.041V112.646L73.7285 108.252Z" fill="#6BBABD"/>
<path fill-rule="evenodd" clip-rule="evenodd" d="M73.7285 121.436H33.5918L29.1973 125.83V130.225L33.5918 134.619H73.7285L78.1227 130.225V125.83L73.7285 121.436Z" fill="#7FDCC7"/>
<path fill-rule="evenodd" clip-rule="evenodd" d="M73.7285 134.619H33.5918L29.1973 139.014V143.408L33.5918 147.803H73.7285L78.1227 143.408V139.014L73.7285 134.619Z" fill="#6BBABD"/>
<path fill-rule="evenodd" clip-rule="evenodd" d="M82.5173 2.19727H73.7282L64.9392 10.9863H73.7282L82.5173 2.19727ZM73.7282 37.3532H64.9392V108.252H73.7282V37.3532ZM73.7285 108.252L78.1231 112.646V117.041L73.7285 121.436L78.1231 125.83V130.225L73.7285 134.619L78.1231 139.014V143.408L73.7285 147.803H82.5176L86.9121 143.408V139.014L82.5176 134.619L86.9121 130.225V125.83L82.5176 121.436L86.9121 117.041V112.646L82.5176 108.252H73.7285Z" fill="#BFBEC1"/>
<path fill-rule="evenodd" clip-rule="evenodd" d="M124.265 56.2201C102.504 53.6177 83.2497 70.5466 83.2497 92.5778C83.2497 114.609 102.504 131.538 124.265 128.936C106.112 126.764 92.0388 111.316 92.0388 92.5778C92.0388 73.8398 106.112 58.3916 124.265 56.2201Z" fill="#9C9C9F"/>
<path fill-rule="evenodd" clip-rule="evenodd" d="M124.268 120.079C122.836 120.306 121.367 120.424 119.871 120.424C104.492 120.424 92.0244 107.957 92.0244 92.5778C92.0244 91.0825 92.1437 89.615 92.3707 88.1833H101.16C100.933 89.615 100.813 91.0825 100.813 92.5778C100.813 106.462 110.976 117.972 124.268 120.079Z" fill="#A4D7F5"/>
<path fill-rule="evenodd" clip-rule="evenodd" d="M64.9395 10.9863H73.7285V37.3532H64.9395V10.9863Z" fill="#135A59"/>
<path fill-rule="evenodd" clip-rule="evenodd" d="M42.3809 108.252H33.5918L29.1973 112.646V117.041L33.5918 121.436H42.3809L37.9863 117.041V112.646L42.3809 108.252Z" fill="#135A59"/>
<path fill-rule="evenodd" clip-rule="evenodd" d="M42.3809 121.436H33.5918L29.1973 125.83V130.225L33.5918 134.619H42.3809L37.9863 130.225V125.83L42.3809 121.436Z" fill="#6AB7A4"/>
<path fill-rule="evenodd" clip-rule="evenodd" d="M42.3809 134.619H33.5918L29.1973 139.014V143.408L33.5918 147.803H42.3809L37.9863 143.408V139.014L42.3809 134.619Z" fill="#41A393"/>
<path d="M97.8981 143.408H93.5036V139.013H97.8981V143.408ZM89.1091 143.408H84.7145V139.013H89.1091V143.408ZM168.211 48.3395H150.633V43.945H168.211V48.3395ZM146.239 48.3395H141.844V43.945H146.239V48.3395Z" fill="white"/>
<path d="M166.924 0H72.8183L62.7422 10.0764V48.3396H67.1367V39.5505H172.605V136.816H152.83V141.211H169.498L165.104 145.605H84.7145V150H166.924L177 139.924V10.0764L166.924 0ZM74.6385 4.39453H165.104L169.498 8.78906H70.2439L74.6385 4.39453ZM67.1367 35.156V13.1836H172.605V35.156H67.1367Z" fill="black"/>
<path d="M62.7422 52.7341H67.1367V101.66H62.7422V52.7341Z" fill="black"/>
<path d="M119.871 131.396C141.276 131.396 158.689 113.982 158.689 92.5778C158.689 71.1732 141.276 53.7598 119.871 53.7598C98.4665 53.7598 81.0527 71.1735 81.0527 92.5781C81.0527 113.983 98.4665 131.396 119.871 131.396ZM119.871 58.1543C138.852 58.1543 154.295 73.5967 154.295 92.5781C154.295 111.56 138.852 127.002 119.871 127.002C100.89 127.002 85.4473 111.56 85.4473 92.5781C85.4473 73.5967 100.89 58.1543 119.871 58.1543Z" fill="black"/>
<path d="M119.871 122.622C127.019 122.622 133.945 120.068 139.373 115.431L136.519 112.09C131.886 116.048 125.973 118.227 119.871 118.227C105.728 118.227 94.2217 106.721 94.2217 92.5779C94.2217 91.8375 94.2551 91.1051 94.3169 90.3806H114.567L123.355 99.1697H144.656C143.677 102.85 141.887 106.294 139.383 109.226L142.725 112.08C147.361 106.652 149.915 99.726 149.915 92.5779C149.915 76.0117 136.437 62.5342 119.871 62.5342C103.305 62.5342 89.8271 76.0117 89.8271 92.5779C89.8271 109.144 103.305 122.622 119.871 122.622ZM119.871 66.9287C131.736 66.9287 141.743 75.0273 144.66 85.9864H129.795V90.3809H145.425C145.487 91.1054 145.52 91.8378 145.52 92.5782C145.52 93.3141 145.487 94.0471 145.424 94.7754H125.175L116.387 85.9864H95.0818C97.9986 75.0273 108.006 66.9287 119.871 66.9287Z" fill="black"/>
<path d="M161.619 17.5781C157.985 17.5781 155.027 20.5351 155.027 24.1699C155.027 27.8048 157.985 30.7617 161.619 30.7617C165.254 30.7617 168.211 27.8045 168.211 24.1699C168.211 20.5354 165.254 17.5781 161.619 17.5781ZM161.619 26.3672C160.407 26.3672 159.422 25.3816 159.422 24.1699C159.422 22.9582 160.407 21.9727 161.619 21.9727C162.831 21.9727 163.816 22.9582 163.816 24.1699C163.816 25.3816 162.831 26.3672 161.619 26.3672Z" fill="black"/>
<path d="M144.041 17.5781C140.407 17.5781 137.45 20.5351 137.45 24.1699C137.45 27.8048 140.407 30.7617 144.041 30.7617C147.676 30.7617 150.633 27.8048 150.633 24.1699C150.633 20.5351 147.676 17.5781 144.041 17.5781ZM144.041 26.3672C142.83 26.3672 141.844 25.3816 141.844 24.1699C141.844 22.9582 142.83 21.9727 144.041 21.9727C145.253 21.9727 146.239 22.9582 146.239 24.1699C146.239 25.3816 145.253 26.3672 144.041 26.3672Z" fill="black"/>
<path d="M126.463 17.5781C122.829 17.5781 119.872 20.5351 119.872 24.1699C119.872 27.8048 122.829 30.7617 126.463 30.7617C130.098 30.7617 133.055 27.8048 133.055 24.1699C133.055 20.5351 130.098 17.5781 126.463 17.5781ZM126.463 26.3672C125.252 26.3672 124.266 25.3816 124.266 24.1699C124.266 22.9582 125.252 21.9727 126.463 21.9727C127.675 21.9727 128.661 22.9582 128.661 24.1699C128.661 25.3816 127.675 26.3672 126.463 26.3672Z" fill="black"/>
<path d="M71.5312 30.7617H102.293V17.5781H71.5312V30.7617ZM75.9258 21.9727H97.8981V26.3672H75.9258V21.9727Z" fill="black"/>
<path d="M32.6818 106.055L27 111.736V117.951L30.4843 121.436L27 124.92V131.135L30.4843 134.619L27 138.103V144.318L32.6818 150H74.6385L80.3203 144.318V138.103L76.8357 134.619L80.3203 131.135V124.92L76.8357 121.436L80.3203 117.951V111.736L74.6385 106.055H32.6818ZM75.9258 142.498L72.8183 145.605H34.5018L31.3945 142.498V139.924L34.5018 136.816H42.3809V132.422H34.5018L31.3945 129.315V126.74L34.5018 123.633H72.8183L75.9258 126.74V129.315L72.8183 132.422H46.7754V136.816H72.8186L75.9258 139.924V142.498ZM75.9258 116.131L72.8183 119.238H34.5018L31.3945 116.131V113.556L34.5018 110.449H72.8183L75.9258 113.556V116.131Z" fill="black"/>
</svg>
