<svg width="41" height="10" viewBox="0 0 32 32" fill="none" xmlns="http://www.w3.org/2000/svg">
<path d="M12.3499 7.4049L12.3541 7.40658C12.4416 7.03362 12.7599 6.75915 13.1581 6.75915H24.5004C24.5147 6.75915 24.5291 6.75326 24.5434 6.7541C24.3017 2.73057 20.9265 0.865723 17.9486 0.865723H6.6063C6.20723 0.865723 5.88899 1.14777 5.80227 1.51989L5.79806 1.51821L0.840005 24.282L0.85095 24.2828C0.839163 24.3367 0.818115 24.3881 0.818115 24.4462C0.818115 24.9117 1.19445 25.2805 1.66003 25.2805H8.45516L12.3499 7.4049Z" fill="#1565C0"/>
<path d="M24.5434 6.75415C24.588 7.49167 24.5392 8.29402 24.3506 9.18056C23.2721 14.2279 19.3732 16.8546 14.5549 16.8546C14.5549 16.8546 11.6334 16.8546 10.9237 16.8546C10.485 16.8546 10.2779 17.1123 10.1828 17.3093L8.71786 24.0859L8.46107 25.289H8.45602L7.39268 30.1687L7.40362 30.1696C7.39184 30.2235 7.37079 30.2748 7.37079 30.3329C7.37079 30.7985 7.74713 31.1748 8.21271 31.1748H14.3865L14.3974 31.1664C14.7948 31.1605 15.1105 30.8768 15.193 30.503L15.2082 30.4904L16.7338 23.4048C16.7338 23.4048 16.8398 22.7287 17.5504 22.7287C18.261 22.7287 21.068 22.7287 21.068 22.7287C25.8863 22.7287 29.8247 20.1137 30.9041 15.0656C32.1181 9.3742 28.0584 6.7752 24.5434 6.75415Z" fill="#039BE5"/>
<path d="M13.1581 6.75915C12.7591 6.75915 12.4408 7.03362 12.3541 7.40659L12.3499 7.4049L10.1819 17.3101C10.2771 17.1131 10.4842 16.8554 10.9228 16.8554C11.6334 16.8554 14.4884 16.8554 14.4884 16.8554C19.3067 16.8554 23.2712 14.2286 24.3497 9.18135C24.5392 8.29481 24.5872 7.49246 24.5425 6.75494C24.5291 6.75326 24.5139 6.75915 24.5004 6.75915H13.1581Z" fill="#283593"/>
</svg>
